<svg width="64" height="64" viewBox="0 0 64 64" fill="none" xmlns="http://www.w3.org/2000/svg">
<path opacity="0.6" fill-rule="evenodd" clip-rule="evenodd" d="M8 0C3.58173 0 0 3.58167 0 8V56C0 60.4183 3.58173 64 8 64H56C60.4183 64 64 60.4183 64 56V8C64 3.58167 60.4183 0 56 0H8ZM36.6766 29.1801L35.2686 29.532L31.9686 29.84L27.9206 30.104H23.5206L18.7245 30.632C16.2606 30.72 15.0286 31.644 15.0726 32.084C15.0964 32.3698 15.2749 32.7716 15.4337 33.129C15.5682 33.4319 15.6885 33.7028 15.6885 33.844C15.6885 34.6801 16.7886 35.032 17.7566 35.208C18.274 35.4298 18.8535 35.3411 19.4168 35.2549C19.5242 35.2384 19.6309 35.222 19.7366 35.208C19.7366 35.208 21.1446 34.9 21.4086 34.9C21.8486 34.504 23.1686 34.152 23.1686 34.152L25.1926 34.2841L28.0526 33.844L29.7686 33.932C29.9878 33.9191 30.1957 33.876 30.3944 33.8347C30.8738 33.7352 31.3002 33.6467 31.7046 34.02C32.3672 34.588 32.2604 35.3145 32.147 36.0858C32.1023 36.3899 32.0566 36.7009 32.0566 37.012C32.0566 37.309 32.2554 37.5729 32.4598 37.8442C32.5886 38.0151 32.7195 38.189 32.8046 38.376L32.1446 39.432C32.1446 39.432 31.7485 39.432 32.1446 40.752C32.4526 41.808 32.7166 43.084 32.7166 43.084L32.5845 44.4919C32.5845 44.5349 32.585 44.5793 32.5856 44.6249C32.5899 44.9999 32.5952 45.4493 32.3206 45.724C32.2017 45.8429 32.2166 46.0599 32.2328 46.2948C32.2526 46.5814 32.2742 46.8945 32.0566 47.088C31.8806 47.22 31.7925 48.54 31.7925 48.804C31.7925 49.156 32.4526 50.564 33.0685 50.564C33.1485 50.564 33.2405 50.5801 33.341 50.5977C33.5723 50.6383 33.8484 50.6866 34.1246 50.564C34.2622 50.4722 34.364 50.2966 34.4673 50.1185C34.5621 49.9551 34.6582 49.7893 34.7845 49.684C34.8636 49.6106 34.9383 49.543 35.0087 49.4792C35.4866 49.0469 35.7639 48.796 35.8406 48.144C35.8667 48.0004 35.8734 47.8838 35.8792 47.7841C35.8929 47.5477 35.9011 47.4056 36.1486 47.22C36.3232 47.0745 36.4594 46.7556 36.5825 46.4673C36.6454 46.3198 36.705 46.1803 36.7646 46.076C37.089 45.6337 37.018 45.2505 36.9359 44.8074C36.8956 44.5895 36.8525 44.3571 36.8525 44.0959C36.8525 44.0959 37.2485 43.084 36.8525 42.7321C36.5446 42.424 36.2366 42.072 36.2366 41.72C36.2366 41.368 36.5446 40.048 36.5446 40.048V39.432L35.8406 38.024V35.252L35.7086 34.2841C35.7264 34.1416 35.701 33.9847 35.6761 33.8309C35.6394 33.6047 35.6038 33.3851 35.7086 33.228C35.9542 32.7982 36.4567 32.7325 36.9175 32.6724C37.1171 32.6462 37.309 32.6212 37.4686 32.568L44.7286 32.304L46.0926 32.6119C46.5216 32.546 46.9568 32.6162 47.3727 32.6832C48.0658 32.7949 48.7051 32.8979 49.1725 32.348C49.5685 31.864 50.0085 31.116 50.0526 30.5439C50.1406 29.708 49.7006 29.136 49.2166 28.8719C48.4686 28.432 47.6326 28.124 46.8406 28.124H43.8046V23.46L44.1566 22.756L44.2446 20.6L44.7286 19.764V18.312C44.7286 18.0571 44.827 17.8219 44.9225 17.5938C45.0743 17.2311 45.2186 16.8861 44.9485 16.5081L44.5526 15.936C44.418 15.7791 44.2262 15.8051 44.0181 15.8331C43.8179 15.8602 43.6027 15.8894 43.4086 15.76C43.295 15.6843 43.196 15.5942 43.0959 15.5032C42.8467 15.2764 42.5908 15.0435 42.0886 15.012L39.0526 14.792L38.0845 15.056C37.9246 15.056 37.7172 15.2102 37.5178 15.3585C37.3332 15.4958 37.1555 15.6281 37.0286 15.6281C36.6766 15.6281 35.6646 15.276 35.6646 15.276L33.2886 15.012L30.9565 15.6281L28.6246 15.012L27.9206 15.276L25.8525 15.98C25.6326 16.332 25.2806 16.464 24.9725 16.464C24.6006 16.5316 24.3586 16.3654 24.0668 16.165C23.9789 16.1046 23.8864 16.0411 23.7845 15.98C23.5206 15.848 23.2126 15.76 22.8605 15.98C22.7322 16.05 22.6069 16.1262 22.4822 16.2021C22.137 16.4122 21.7965 16.6193 21.4086 16.684C21.258 16.7054 21.0338 16.6429 20.8029 16.5785C20.5614 16.511 20.3125 16.4415 20.1326 16.464C19.601 16.5231 19.4857 16.9785 19.3609 17.4712C19.2997 17.7126 19.2363 17.963 19.1205 18.1801L19.4286 19.324C19.4286 19.324 20.1326 19.5 20.4406 19.764C20.7485 20.072 22.5085 20.468 22.5085 20.468L24.8406 19.764L26.8646 19.632H29.1965L30.6046 19.324L33.6846 18.576L34.6526 18.972H39.2726C39.6686 19.016 40.0206 19.324 40.3726 20.292L40.2845 22.756C40.0788 23.1218 40.1462 23.3807 40.2277 23.6931C40.303 23.9819 40.3903 24.3167 40.2845 24.824C39.8885 25.748 39.8885 27.5081 39.8885 27.86V28.608L39.5366 28.7841L38.0406 29.1801H36.6766Z" fill="white"/>
</svg>
