<svg width="630" height="139" viewBox="0 0 630 139" fill="none" xmlns="http://www.w3.org/2000/svg">
<g filter="url(#filter0_d_158_47)">
<path fill-rule="evenodd" clip-rule="evenodd" d="M579.578 23.4V33.8H566.336C570.416 38.5217 572.719 44.5007 572.719 50.72C572.719 65.1765 561.025 77.34 543.719 77.34C525.845 77.34 514.578 65.1699 514.578 50.72C514.578 44.5007 516.881 38.5217 520.961 33.8H507.719V23.4H535.828C537.168 20.6221 537.526 17.1967 537.4 14.799C537.272 12.7555 536.501 10.7982 535.671 8.99905L535.193 7.96355L547.595 4.1087L547.893 5.06171C547.934 5.19383 547.977 5.33074 548.022 5.47212L548.028 5.4924L548.028 5.49273L548.029 5.4932L548.029 5.49394C548.724 7.70234 549.758 10.9913 549.758 14.18C549.758 17.4262 549.016 20.5592 547.717 23.4H579.578ZM592.559 85.7H605.339V129.68C605.339 130.891 605.118 132.065 604.353 132.932C603.565 133.825 602.391 134.18 600.979 134.18H544.138C539.696 134.18 536.133 133.594 533.694 131.632C531.197 129.622 530.119 126.378 530.119 121.7V85.7H542.898V99.98H592.559V85.7ZM592.419 80.56V13.04H605.339V43.42H625.919V54.1H605.339V80.56H592.419ZM556.284 39.7036C553.763 36.6656 549.752 34.5 543.719 34.5C537.757 34.5 533.706 36.6644 531.13 39.7107C528.53 42.7849 527.359 46.8456 527.359 50.72C527.359 54.8118 528.533 58.8285 531.121 61.8066C533.687 64.7604 537.736 66.8 543.719 66.8C549.774 66.8 553.782 64.7591 556.292 61.8138C558.827 58.8407 559.938 54.8249 559.938 50.72C559.938 46.8327 558.83 42.7725 556.284 39.7036ZM592.559 110.52H542.898V121.28C542.898 122.398 543.106 122.902 543.352 123.157C543.592 123.405 544.087 123.64 545.258 123.64H592.559V110.52ZM546.944 5.37829C546.984 5.50561 547.025 5.63652 547.067 5.77079L547.067 5.77042C547.023 5.62984 546.98 5.49294 546.938 5.35999L546.944 5.37829ZM449.219 63.76H479.427V96.52H492.347V13.04H479.427V24.8H451.097C445.427 17.6315 436.443 12.9 425.687 12.9C407.959 12.9 394.027 26.1854 394.027 43.16C394.027 59.3923 406.935 73.56 425.687 73.56C435.179 73.56 443.441 69.7977 449.219 63.76ZM479.427 53.22H455.708C456.83 50.1064 457.487 46.6904 457.487 43.16C457.487 40.5514 457.065 37.8562 456.407 35.34H479.427V53.22ZM429.347 88.36H416.427V121.42C416.427 124.956 417.389 127.857 419.569 129.857C421.732 131.842 424.925 132.78 429.047 132.78H466.987C477.17 132.78 485.667 131.504 495.976 128.397L496.918 128.114L493.982 117.751L492.982 118.094C484.149 121.131 476.843 122.1 466.707 122.1H432.407C430.885 122.1 430.214 121.794 429.887 121.458C429.558 121.119 429.347 120.516 429.347 119.32V88.36ZM425.687 23.72C437.532 23.72 444.847 32.5872 444.847 43.16C444.847 53.8774 437.528 62.74 425.687 62.74C413.992 62.74 406.667 53.8823 406.667 43.16C406.667 32.5823 413.987 23.72 425.687 23.72ZM363.002 89.24V102.12H375.922V13.04H363.002V78.98H338.222V89.24H363.002ZM317.262 74.399C328.981 74.3736 343.119 73.8575 356.75 69.4515L357.595 69.1784L355.527 58.6686L354.46 59.0067C340.479 63.4363 327.595 63.72 314.442 63.72H274.942V74.4H304.342V92.88H317.262V74.399ZM297.622 96.9H310.542V119.32C310.542 120.516 310.752 121.119 311.082 121.458C311.408 121.794 312.08 122.1 313.602 122.1H350.702C360.838 122.1 368.144 121.131 376.977 118.094L377.976 117.751L380.912 128.114L379.971 128.397C369.662 131.504 361.165 132.78 350.982 132.78H310.242C306.12 132.78 302.927 131.842 300.764 129.857C298.584 127.857 297.622 124.956 297.622 121.42V96.9ZM342.742 33.92C342.742 48.69 329.448 57.74 313.742 57.74C305.652 57.74 298.387 55.4497 293.122 51.3139C287.839 47.1642 284.602 41.1764 284.602 33.92C284.602 26.4522 287.91 20.461 293.235 16.3626C298.537 12.2812 305.8 10.1 313.742 10.1C329.305 10.1 342.742 19.1472 342.742 33.92ZM326.075 24.6851C323.399 22.3803 319.314 20.92 313.742 20.92C308.097 20.92 303.977 22.3817 301.285 24.6871C298.608 26.9796 297.242 30.1899 297.242 33.92C297.242 37.6501 298.608 40.8604 301.285 43.1529C303.977 45.4583 308.097 46.92 313.742 46.92C319.314 46.92 323.399 45.4597 326.075 43.1549C328.736 40.862 330.102 37.6505 330.102 33.92C330.102 30.1895 328.736 26.978 326.075 24.6851ZM219.871 33.8V23.4H188.01C189.309 20.5592 190.051 17.4262 190.051 14.18C190.051 10.9905 189.016 7.70063 188.321 5.49222C188.274 5.34371 188.229 5.20009 188.186 5.06171L187.888 4.1087L175.486 7.96355L175.963 8.99905C176.794 10.7978 177.564 12.7546 177.693 14.7976C177.818 17.1953 177.461 20.6215 176.121 23.4H148.011V33.8H161.254C157.174 38.5217 154.871 44.5007 154.871 50.72C154.871 65.1699 166.138 77.34 184.011 77.34C201.318 77.34 213.011 65.1765 213.011 50.72C213.011 44.5007 210.709 38.5217 206.629 33.8H219.871ZM244.371 99.0569L244.371 99.0444C244.443 96.0905 244.02 93.6095 242.79 91.734C241.834 90.2765 240.452 89.2754 238.653 88.6796C242.147 85.1547 245.631 80.1806 245.631 72V54.1H266.211V43.56H245.631V13.04H232.711V72.84C232.711 78.2978 230.428 83.9223 227.089 87.94H166.771V98.48H228.951C230.23 98.48 230.74 98.8356 230.994 99.187C231.304 99.6141 231.451 100.314 231.451 101.4V134.18H243.075L244.371 99.0569ZM184.011 34.5C190.045 34.5 194.056 36.6656 196.577 39.7036C199.123 42.7725 200.231 46.8327 200.231 50.72C200.231 54.8249 199.12 58.8407 196.585 61.8138C194.075 64.7591 190.067 66.8 184.011 66.8C178.029 66.8 173.98 64.7604 171.414 61.8066C168.826 58.8285 167.651 54.8118 167.651 50.72C167.651 46.8456 168.823 42.7849 171.422 39.7107C173.999 36.6644 178.05 34.5 184.011 34.5ZM121.628 65.1598C130.186 61.3085 133.966 52.7988 133.966 43.44C133.966 34.7651 130.768 28.465 125.268 24.3681C119.816 20.306 112.223 18.5 103.566 18.5H84.3861C79.553 18.5 75.5588 19.6532 72.7699 22.2306C69.9666 24.8212 68.5461 28.6966 68.5461 33.78V98.88C68.5461 104.538 69.8336 108.66 72.7966 111.33C75.7345 113.978 80.105 115 85.7861 115H102.726C111.9 115 120.291 112.798 126.413 108.146C132.573 103.468 136.346 96.3762 136.346 86.84C136.346 81.2297 135.051 76.3101 132.139 72.4162C129.721 69.1807 126.24 66.7259 121.628 65.1598ZM81.4661 71.04H102.306C109.264 71.04 114.548 72.4558 118.069 75.0929C121.544 77.6952 123.426 81.5782 123.426 86.84C123.426 92.3316 121.528 96.4808 118.248 99.2736C114.946 102.085 110.127 103.62 104.126 103.62H85.9261C83.854 103.62 82.8481 103.075 82.3047 102.378C81.7158 101.622 81.4661 100.444 81.4661 98.74V71.04ZM81.4661 59.52V35.18C81.4661 33.1898 81.7524 31.9395 82.3287 31.1839C82.8519 30.498 83.7786 30.02 85.6461 30.02H103.566C109.257 30.02 113.629 31.223 116.557 33.4552C119.443 35.6551 121.046 38.9465 121.046 43.44C121.046 49.0242 119.274 52.9794 116.126 55.5648C112.944 58.1787 108.203 59.52 102.026 59.52H81.4661ZM50.9308 18.5H38.0108V89.36C38.0108 95.1221 36.7725 99.1003 34.4723 101.638C32.1908 104.156 28.6954 105.44 23.7508 105.44C18.2615 105.44 14.6621 103.718 10.478 101.626L9.54057 101.157L4.96906 111.485L5.75947 111.931C11.3488 115.084 16.5564 116.82 24.1708 116.82C31.9049 116.82 38.6216 114.706 43.4095 110.158C48.207 105.6 50.9308 98.7288 50.9308 89.5V18.5Z" fill="white"/>
</g>
<defs>
<filter id="filter0_d_158_47" x="0.969055" y="0.108704" width="628.949" height="138.071" filterUnits="userSpaceOnUse" color-interpolation-filters="sRGB">
<feFlood flood-opacity="0" result="BackgroundImageFix"/>
<feColorMatrix in="SourceAlpha" type="matrix" values="0 0 0 0 0 0 0 0 0 0 0 0 0 0 0 0 0 0 127 0" result="hardAlpha"/>
<feOffset/>
<feGaussianBlur stdDeviation="2"/>
<feComposite in2="hardAlpha" operator="out"/>
<feColorMatrix type="matrix" values="0 0 0 0 1 0 0 0 0 1 0 0 0 0 1 0 0 0 0.6 0"/>
<feBlend mode="normal" in2="BackgroundImageFix" result="effect1_dropShadow_158_47"/>
<feBlend mode="normal" in="SourceGraphic" in2="effect1_dropShadow_158_47" result="shape"/>
</filter>
</defs>
</svg>
