<svg width="64" height="64" viewBox="0 0 64 64" fill="none" xmlns="http://www.w3.org/2000/svg">
<path opacity="0.6" fill-rule="evenodd" clip-rule="evenodd" d="M8 0C3.58173 0 0 3.58167 0 8V56C0 60.4183 3.58173 64 8 64H56C60.4183 64 64 60.4183 64 56V8C64 3.58167 60.4183 0 56 0H8ZM26.5566 13.736L25.3246 14.264H23.5206C22.2886 13.472 21.6725 13.208 21.6725 13.208C20.2206 13.208 18.7686 13.868 18.5926 14.484C17.9766 15.672 18.3286 16.728 18.7686 17.696L19.3846 18.092L21.1885 18.972C21.9366 20.248 21.6725 23.944 21.6725 23.944L22.1566 24.9561C22.1566 24.9561 22.2886 24.9561 22.2886 25.88C22.2886 26.3492 22.3925 26.6627 22.4698 26.8962C22.5159 27.035 22.5526 27.1456 22.5526 27.244C22.5526 27.5043 22.7996 27.6504 23.0439 27.795C23.1713 27.8705 23.298 27.9454 23.3885 28.036C23.5684 28.1709 23.8745 28.2368 24.1603 28.2985C24.434 28.3574 24.689 28.4125 24.7966 28.52C25.0605 28.652 26.0726 28.8719 27.1285 29.136L27.3532 29.1632C28.4329 29.2947 29.8301 29.4647 30.0765 29.136L32.1446 28.74C32.1885 28.828 32.2325 28.8719 32.2325 28.8719V32.172L31.0886 32.524H30.2526C29.9006 32.744 29.2845 32.876 29.2845 32.876L26.7325 33.272H23.8286C23.3445 33.052 22.4645 32.92 22.4645 32.92C22.4645 32.92 20.5286 32.524 20.2646 32.524C19.9125 32.524 18.6805 32.26 18.5486 32.524L17.0966 33.0959L16.3926 34.02L16.2606 34.3719C16.311 34.6913 16.2715 34.8887 16.2427 35.0327C16.1962 35.2657 16.1775 35.3593 16.6125 35.604L17.5366 36.308C18.8677 37.3348 20.0345 37.2112 21.0653 37.1019C21.2271 37.0848 21.3854 37.068 21.5406 37.056C22.0817 37.0173 22.6568 37.0297 23.1726 37.0406C23.8311 37.0547 24.3931 37.0668 24.6646 36.968C24.9959 36.968 25.2755 37.0284 25.5338 37.0844C25.8586 37.1545 26.15 37.2175 26.4686 37.144C26.7681 37.1012 27.2654 36.9335 27.7429 36.7725C28.2471 36.6024 28.7291 36.4399 28.9326 36.4399L30.6046 35.9561C34.8726 35.472 34.2566 35.912 34.2566 35.912H35.9725L37.5566 35.516C37.5566 35.516 37.7766 35.78 38.6125 35.516C39.4926 35.428 41.0765 35.428 41.5605 35.428H43.3646L44.5966 35.1639L46.8846 35.604C46.8846 35.604 47.3686 35.472 47.9846 35.472C48.4805 35.472 48.9329 35.1881 49.2492 34.9895C49.3818 34.9062 49.4905 34.838 49.5685 34.812L50.0526 34.416L49.9206 32.964L49.5245 32.1281C49.0108 31.7765 48.6632 31.5746 48.3797 31.4098C48.2018 31.3065 48.0492 31.2178 47.8965 31.116C47.5446 30.896 47.6766 30.764 46.5765 30.896C45.4766 30.896 44.5085 31.204 44.5085 31.204C44.5085 31.204 43.6725 31.204 43.1885 31.292C42.9736 31.3506 42.663 31.3918 42.338 31.4351C41.9313 31.4891 41.502 31.5463 41.2086 31.644C40.1526 31.996 39.3605 32.172 39.0966 32.084C38.8766 31.952 38.2606 31.952 38.2606 31.952L36.4565 32.084C36.4565 32.084 35.9725 31.688 35.8406 31.3361C35.7086 30.984 35.7086 28.696 35.7086 27.86V27.816C36.1046 27.86 37.0286 28.036 37.3806 27.9041C37.7325 27.684 38.1285 27.552 38.4806 27.244L40.9446 27.42C41.1866 27.42 41.6376 27.321 42.0886 27.222C42.5396 27.123 42.9905 27.024 43.2325 27.024C43.4506 27.024 43.8019 26.984 44.1177 26.948C44.3756 26.9186 44.6099 26.892 44.7286 26.892C44.8301 26.892 44.9317 26.9359 45.0396 26.9827C45.3057 27.0978 45.6103 27.2296 46.0486 26.76C46.6646 26.1 46.8846 25.748 46.8846 25.528V24.604C46.8846 24.604 46.4006 23.724 46.1805 23.856L45.2126 23.196L44.0245 23.108C44.0245 23.108 42.7485 22.932 42.1766 23.196C41.5605 23.548 40.5926 23.856 40.5926 23.856C40.5926 23.856 40.4606 23.548 39.9766 23.856L38.6125 23.7679C37.9966 23.9 37.7325 24.032 37.2485 24.1639C36.8843 24.2633 36.1214 24.238 35.5599 24.2195C35.3752 24.2134 35.2123 24.208 35.0926 24.208H33.9926C33.9926 24.208 33.6406 24.516 33.1566 24.604C32.6285 24.604 31.5286 25.0439 31.5286 25.0439L30.0765 24.9561H29.1965L28.7126 25.088C27.7446 24.9561 27.1285 24.868 27.1285 24.868C27.1285 24.868 26.6446 24.868 26.4246 24.428C26.3806 24.428 26.3806 24.384 26.3806 24.384L26.2925 24.208C25.9406 23.548 25.6766 18.092 25.6766 18.092L25.8085 17.696C27.2606 17.696 27.8766 17.564 27.8766 17.564C27.8766 17.564 28.1406 17.916 29.1086 17.608C31.3367 17.2528 31.3372 17.2531 31.3709 17.2784C31.3832 17.2876 31.3998 17.3 31.5286 17.3H33.1566C35.2547 17.0203 35.3519 17.0461 35.4359 17.0686C35.4576 17.0743 35.4784 17.08 35.5326 17.08C35.6614 17.08 35.8111 17.101 35.9869 17.1224C36.1714 17.1449 36.3846 17.168 36.6326 17.168C37.1166 17.212 37.6885 17.256 38.0845 17.256L39.0526 17.036C39.6686 17.08 40.8566 17.168 40.8566 17.168C40.8566 17.168 40.8903 17.168 41.0486 17.1736C41.2036 17.1792 41.4778 17.1902 41.9565 17.212C42.7925 17.256 43.4086 17.08 44.0245 16.684C44.3326 16.552 44.8166 16.464 44.8166 16.1119C44.8304 15.9872 44.8487 15.9017 44.8644 15.828C44.8986 15.6678 44.9208 15.5635 44.8606 15.2321C44.7726 14.704 45.1246 14.704 44.5085 14.176C44.2935 13.9896 44.1906 13.8125 44.0992 13.6554C43.9104 13.3306 43.7713 13.0913 42.7925 13.032C41.2086 12.812 40.1086 12.9 40.1086 12.9C40.1086 12.9 40.0033 12.9526 39.8216 13.0508C39.671 13.1321 39.4678 13.2445 39.2286 13.384C38.7446 13.428 39.4926 13.12 36.5886 13.34C36.3686 13.34 35.2686 13.6479 35.2686 13.6479L32.2325 13.34H31.5286L29.5926 13.736H26.5566ZM42.2949 44.0031C42.2117 43.7385 42.1326 43.4872 42.1326 43.2159C42.1326 41.808 41.3406 41.368 41.3406 41.368L40.9446 40.752L39.1406 39.476C38.0869 39.1072 37.9321 38.8488 37.8265 38.6725C37.7557 38.5543 37.707 38.473 37.4246 38.42C37.0305 38.2969 36.5122 38.2426 36.0629 38.1956C35.7096 38.1586 35.3989 38.1261 35.2245 38.068L33.2006 38.156L31.8365 38.5081C31.2646 38.64 30.9565 38.728 29.7245 39.256L28.2286 40.752L27.1285 41.984C26.4686 42.644 26.2485 43.304 26.2485 43.304C26.2485 43.304 26.4246 44.4041 26.1166 44.756C25.9126 44.96 26.0355 45.2223 26.2026 45.5791C26.36 45.9149 26.5566 46.3346 26.5566 46.868C26.5566 47.8361 26.8646 48.672 27.2606 49.288C27.6566 49.9041 28.0085 50.3 28.2286 50.52C28.6246 50.8719 28.8445 51.048 29.8566 51.2679L30.1372 51.3384C31.3475 51.6431 31.9309 51.7899 33.2006 51.708C34.1535 51.6095 34.812 51.6581 35.2309 51.6891C35.3729 51.6996 35.4874 51.708 35.5765 51.708L35.6423 51.7083C36.0089 51.7106 36.3322 51.7126 37.2046 51.048C37.788 50.6768 38.6273 50.3214 39.2694 50.0496C39.6926 49.8704 40.0302 49.7274 40.1526 49.64C40.3151 49.4955 40.4332 49.3658 40.5433 49.2449C40.7014 49.0712 40.8431 48.9156 41.0765 48.76L41.8246 48.144C42.5032 47.5851 42.4937 46.3018 42.4861 45.2799C42.4853 45.1755 42.4846 45.0739 42.4846 44.976C42.4846 44.6057 42.3872 44.2964 42.2949 44.0031ZM38.2908 46.0507C38.1627 46.2742 38.0406 46.4871 38.0406 46.736C38.0406 47.572 36.5886 47.924 36.2806 48.012C35.539 48.2493 34.8975 48.1866 34.2211 48.1206C33.8941 48.0887 33.559 48.056 33.2006 48.056C32.1446 48.056 31.7485 47.704 31.3525 47.308C31.2646 47.1907 31.1571 47.0734 31.0496 46.9561C30.8344 46.7214 30.6192 46.4867 30.5605 46.252C30.4286 45.724 30.1205 44.4919 30.5605 43.92L31.2206 43.084C31.2938 42.9375 31.3806 42.8452 31.4658 42.7545C31.5343 42.6818 31.6018 42.61 31.6606 42.512C32.0566 41.896 32.9806 41.984 32.9806 41.984C32.9806 41.984 34.8726 41.368 35.1805 41.368C35.3163 41.368 35.5192 41.5022 35.7684 41.6669C35.923 41.769 36.0953 41.8829 36.2806 41.984C36.5385 42.2133 36.8524 42.4612 37.1129 42.667C37.2524 42.7772 37.3765 42.8754 37.4686 42.952C37.498 43.0552 37.5817 43.1583 37.6949 43.2977C37.9198 43.5747 38.2611 43.9951 38.5245 44.844C38.6819 45.3685 38.4798 45.7211 38.2908 46.0507Z" fill="white"/>
</svg>
