<svg width="400" height="104" viewBox="0 0 400 104" fill="none" xmlns="http://www.w3.org/2000/svg">
<g opacity="0.3">
<g clip-path="url(#clip0_23_14)">
<path d="M64.5745 46.5931C65.1776 46.7439 65.7808 46.9701 66.3839 47.2717C67.1379 47.7994 67.7787 48.346 68.3065 48.9115C68.8342 49.4769 69.0981 49.9481 69.0981 50.3251C69.0981 50.6267 69.0793 50.9471 69.0416 51.2864C69.0039 51.6256 68.9096 51.9461 68.7588 52.2476C68.608 52.5492 68.4007 52.8131 68.1368 53.0393C67.873 53.2655 67.6279 53.4162 67.4017 53.4916C65.8185 53.7178 63.9525 53.9817 61.8038 54.2833C59.6551 54.5848 57.7891 54.811 56.2058 54.9618C55.9042 56.2435 55.5461 57.8645 55.1315 59.8247C54.7168 61.7849 54.321 63.6321 53.944 65.3661C57.4875 64.9891 61.1818 64.5556 65.0269 64.0656C68.8719 63.5755 71.9631 63.1797 74.3002 62.8781C74.6772 62.8027 75.0165 62.765 75.3181 62.765H75.9966C76.8259 62.765 77.9003 62.9535 79.2197 63.3305C80.5391 63.7074 81.7642 64.1975 82.8951 64.8007C83.8752 65.5546 84.6857 66.4405 85.3265 67.4583C85.9674 68.4761 86.2878 69.3997 86.2878 70.229C86.2878 70.9829 85.9674 71.6238 85.3265 72.1515C84.6857 72.6793 83.9129 72.9432 83.0082 72.9432C82.2543 72.9432 81.048 72.8866 79.3893 72.7735C77.7307 72.6604 75.9966 72.5662 74.1872 72.4908C73.0563 72.34 71.85 72.2269 70.5683 72.1515C69.2866 72.0761 68.2311 72.0384 67.4017 72.0384C61.5965 72.0384 55.5084 72.1138 49.1377 72.2646C42.7669 72.4154 37.6967 72.6793 33.9271 73.0562C30.9113 73.207 27.349 73.5086 23.24 73.961C19.1311 74.4133 15.5311 74.9034 12.4399 75.4311C11.7614 75.5819 10.9886 75.7139 10.1216 75.827C9.25455 75.94 8.48176 75.9966 7.80322 75.9966C7.04929 75.9966 6.18226 75.7704 5.20215 75.318C4.22203 74.8657 3.31731 74.3379 2.48798 73.7348C1.80944 73.0562 1.22514 72.4342 0.735086 71.8688C0.245029 71.3033 0 70.9075 0 70.6813C0 70.3044 0.0753935 69.984 0.22618 69.7201C0.376967 69.4562 0.603148 69.3243 0.904721 69.3243C2.86495 69.3243 6.3519 69.1735 11.3656 68.8719C16.3792 68.5703 21.6756 68.1934 27.2547 67.741C27.1793 66.007 27.0097 64.1975 26.7458 62.3127C26.482 60.4278 26.2746 58.92 26.1238 57.7891C25.5961 57.8645 25.0495 57.9021 24.484 57.9021H23.0704C21.4117 57.9021 19.8662 57.676 18.4337 57.2236C17.0012 56.7713 15.9834 56.2058 15.3803 55.5273C15.0033 55.1503 14.6829 54.7356 14.419 54.2833C14.1551 53.8309 14.0232 53.567 14.0232 53.4916C14.0232 53.1901 14.0797 52.9639 14.1928 52.8131C14.3059 52.6623 14.5132 52.5869 14.8148 52.5869C16.3981 52.5115 18.2075 52.4173 20.2431 52.3042C22.2788 52.1911 24.0128 52.0969 25.4453 52.0215C25.3699 51.1921 25.2568 50.4382 25.106 49.7597C24.9552 49.0811 24.8044 48.5911 24.6537 48.2895C24.5029 47.8371 24.2955 47.3848 24.0317 46.9324C23.7678 46.48 23.4851 46.1031 23.1835 45.8015C22.9573 45.4999 22.7688 45.1984 22.618 44.8968C22.4673 44.5952 22.3542 44.369 22.2788 44.2182C22.2788 43.8413 22.4296 43.5209 22.7311 43.257C23.0327 42.9931 23.4097 42.8612 23.862 42.8612C24.6914 42.8612 25.6903 43.0119 26.8589 43.3135C28.0275 43.6151 29.0642 43.9544 29.9689 44.3313C31.0998 44.7837 32.0799 45.2926 32.9092 45.858C33.7386 46.4235 34.1532 46.8947 34.1532 47.2717C34.0778 47.3471 34.0401 47.5167 34.0401 47.7806V48.6288C33.9648 48.8549 33.9082 49.2319 33.8705 49.7597C33.8328 50.2874 33.814 50.8529 33.814 51.456C35.6988 51.3052 37.6967 51.0979 39.8077 50.834C41.9188 50.5701 43.6528 50.3251 45.0099 50.0989C45.613 50.0235 46.2916 49.9293 47.0455 49.8162C47.7994 49.7031 48.4403 49.6089 48.968 49.5335C49.1188 48.6288 49.2319 47.7617 49.3073 46.9324C49.3827 46.1031 49.4204 45.5376 49.4204 45.236C49.345 44.6329 49.2319 44.0486 49.0811 43.4832C48.9304 42.9177 48.7796 42.4842 48.6288 42.1826C48.478 41.8056 48.3461 41.4287 48.233 41.0517C48.1199 40.6747 48.0633 40.4109 48.0633 40.2601C48.0633 39.8831 48.233 39.5627 48.5722 39.2988C48.9115 39.0349 49.2696 38.903 49.6466 38.903C50.5513 38.903 51.588 39.0349 52.7566 39.2988C53.9252 39.5627 54.9241 39.9208 55.7535 40.3732C56.9598 40.8255 57.9776 41.3344 58.8069 41.8999C59.6362 42.4653 60.0509 42.9366 60.0509 43.3135C59.9755 43.3889 59.8813 43.5585 59.7682 43.8224C59.6551 44.0863 59.5231 44.369 59.3723 44.6706C59.297 44.9722 59.1462 45.368 58.92 45.858C58.6938 46.3481 58.5053 46.8947 58.3545 47.4979C58.5807 47.4225 58.8823 47.3282 59.2593 47.2151C59.6362 47.102 59.9755 47.0078 60.2771 46.9324C60.8048 46.7816 61.3514 46.6497 61.9169 46.5366C62.4823 46.4235 62.9158 46.367 63.2174 46.367C63.519 46.367 63.9713 46.4423 64.5745 46.5931ZM31.4391 76.3924C32.57 76.6563 33.8517 76.9767 35.2841 77.3537C36.5658 77.7306 37.659 78.2584 38.5638 78.9369C39.4685 79.6155 39.9208 80.2563 39.9208 80.8595C39.9208 81.0856 39.8454 81.3118 39.6947 81.538C39.5439 81.7642 39.3177 81.915 39.0161 81.9904C38.2622 82.4427 37.3009 83.1213 36.1323 84.026C34.9637 84.9307 33.8894 85.8354 32.9092 86.7402C31.0244 88.3988 28.8945 90.0386 26.5196 91.6596C24.1448 93.2805 22.128 94.5434 20.4693 95.4481C19.4892 95.9759 18.2075 96.5602 16.6243 97.201C15.041 97.8418 13.6085 98.3884 12.3268 98.8408C12.0253 98.9916 11.6294 99.1235 11.1394 99.2366C10.6493 99.3497 10.2535 99.4063 9.95194 99.4063C9.72576 99.4063 9.51842 99.3497 9.32994 99.2366C9.14146 99.1235 9.04722 99.0293 9.04722 98.9539C10.5551 97.8984 12.2326 96.6356 14.0797 95.1654C15.9269 93.6952 17.4536 92.357 18.6599 91.1507C20.3939 89.5674 22.0337 87.8145 23.5793 85.892C25.1249 83.9694 26.2746 82.405 27.0286 81.1987C27.2547 80.8218 27.4621 80.2752 27.6506 79.5589C27.839 78.8427 27.9333 78.1076 27.9333 77.3537C27.9333 76.9767 28.0652 76.6563 28.3291 76.3924C28.593 76.1285 28.8757 75.9966 29.1773 75.9966C29.5542 75.9966 30.3082 76.1285 31.4391 76.3924ZM19.5646 9.04719C20.4693 9.19798 21.2987 9.38646 22.0526 9.61264C22.2034 9.68803 22.3542 9.74458 22.5049 9.78228C22.6557 9.81997 22.7688 9.87652 22.8442 9.95191C27.2924 9.57494 32.8904 8.80216 39.6381 7.63356C46.3858 6.46496 52.5115 5.23982 58.0153 3.95813C58.4676 3.95813 59.3347 4.24086 60.6163 4.80631C61.898 5.37176 63.2551 6.06915 64.6876 6.89848C66.4216 8.10477 67.8541 9.25452 68.985 10.3477C70.1159 11.4409 70.6814 12.2514 70.6814 12.7792C70.6814 13.0053 70.6248 13.2692 70.5117 13.5708C70.3986 13.8724 70.229 14.1362 70.0028 14.3624C69.3243 15.2671 68.608 16.4734 67.8541 17.9813C67.1002 19.4892 66.497 20.884 66.0447 22.1657C65.7431 23.7489 65.2719 25.7468 64.631 28.1594C63.9902 30.572 63.2928 32.8338 62.5389 34.9448C62.2373 35.3218 61.7849 35.7553 61.1818 36.2454C60.5786 36.7354 59.9755 37.1313 59.3723 37.4328C58.8446 37.5836 58.298 37.7155 57.7325 37.8286C57.1671 37.9417 56.6959 37.9983 56.3189 37.9983C56.0173 37.9983 55.7346 37.8852 55.4707 37.659C55.2069 37.4328 54.9995 37.1689 54.8487 36.8674C54.7733 36.6412 54.6414 36.3962 54.4529 36.1323C54.2644 35.8684 54.1325 35.6988 54.0571 35.6234C51.8707 35.6988 49.3639 35.8684 46.5366 36.1323C43.7094 36.3962 41.2025 36.7166 39.0161 37.0936C36.8297 37.4705 34.8506 37.7909 33.0789 38.0548C31.3071 38.3187 30.1574 38.4506 29.6296 38.4506H29.2904C29.1396 38.9784 28.8568 39.4119 28.4422 39.7512C28.0275 40.0904 27.594 40.2601 27.1416 40.2601C26.6893 40.2601 26.1804 40.1093 25.6149 39.8077C25.0495 39.5061 24.5783 39.1669 24.2013 38.7899C23.8997 38.4129 23.6358 38.036 23.4097 37.659C23.1835 37.282 23.0704 36.9428 23.0704 36.6412C22.618 35.5857 22.128 33.8139 21.6002 31.326C21.0725 28.838 20.6201 26.2369 20.2431 23.5227C19.9416 21.9395 19.5458 20.2808 19.0557 18.5468C18.5656 16.8127 18.0567 15.4933 17.529 14.5886C17.2274 13.7593 16.775 12.93 16.1719 12.1006C15.5687 11.2713 14.9656 10.6305 14.3625 10.1781C14.3625 9.80112 14.6452 9.4807 15.2106 9.21682C15.7761 8.95295 16.4735 8.82101 17.3028 8.82101C17.9059 8.82101 18.6599 8.8964 19.5646 9.04719ZM32.7396 33.0789C34.2852 32.8904 35.7365 32.683 37.0936 32.4569V26.35C36.7166 26.4254 36.3773 26.4631 36.0758 26.4631H35.3972C34.6433 26.4631 33.7951 26.3877 32.8527 26.2369C31.9103 26.0861 31.1375 25.8976 30.5344 25.6714C30.0066 25.4453 29.5731 25.1625 29.2338 24.8233C28.8945 24.484 28.7249 24.1636 28.7249 23.862C28.7249 23.485 28.8003 23.1081 28.9511 22.7311C29.1019 22.3541 29.3281 22.128 29.6296 22.0526C30.6851 21.9018 31.9291 21.7133 33.3616 21.4871C34.7941 21.2609 36.0004 21.0347 36.9805 20.8086C36.9051 19.6777 36.8486 18.6033 36.8109 17.5855C36.7732 16.5677 36.6789 15.908 36.5281 15.6064C36.4527 15.2295 36.3208 14.8336 36.1323 14.419C35.9438 14.0043 35.7742 13.6462 35.6234 13.3446V13.2315H35.5103C33.7009 13.3069 31.8349 13.3823 29.9124 13.4577C27.9898 13.5331 26.4631 13.6085 25.3322 13.6839L28.9511 33.4747C29.9312 33.3993 31.194 33.2673 32.7396 33.0789ZM35.1145 67.0625H35.5103C37.169 66.9117 39.0161 66.742 41.0517 66.5536C43.0874 66.3651 44.8214 66.1954 46.2539 66.0447C46.5555 64.386 46.8759 62.5765 47.2152 60.6163C47.5544 58.6561 47.8372 57.0728 48.0633 55.8665C46.6309 56.0173 45.0476 56.1681 43.3135 56.3189C41.5795 56.4697 40.0716 56.6205 38.7899 56.7713C38.036 56.8466 37.2067 56.922 36.3019 56.9974C35.3972 57.0728 34.6056 57.1482 33.9271 57.2236C34.0024 58.4299 34.1155 59.9566 34.2663 61.8038C34.4171 63.6509 34.5302 65.4415 34.6056 67.1755C34.7564 67.1002 34.926 67.0625 35.1145 67.0625ZM47.3848 30.4778C48.6665 30.1385 49.6843 29.8558 50.4382 29.6296C50.8152 29.4788 51.211 29.3657 51.6257 29.2903C52.0403 29.2149 52.3608 29.1772 52.5869 29.1772C52.9639 29.1772 53.3597 29.2526 53.7744 29.4034C54.189 29.5542 54.5472 29.705 54.8487 29.8558C55.2257 28.6495 55.565 27.2359 55.8666 25.6149C56.1681 23.9939 56.3943 22.5803 56.5451 21.374C56.6959 20.2431 56.8278 18.9803 56.9409 17.5855C57.054 16.1907 57.1105 15.041 57.1105 14.1362C57.1105 13.3823 56.9221 12.7603 56.5451 12.2703C56.1681 11.7802 55.6781 11.5352 55.0749 11.5352C53.2655 11.686 51.2676 11.8556 49.0811 12.0441C46.8947 12.2326 45.0476 12.4022 43.5397 12.553C44.2937 12.8546 44.8968 13.1938 45.3492 13.5708C45.8015 13.9478 46.0277 14.287 46.0277 14.5886C45.9523 14.664 45.9146 14.8148 45.9146 15.041C45.9146 15.2671 45.8769 15.4933 45.8015 15.7195C45.7261 15.9457 45.613 16.3792 45.4623 17.02C45.3115 17.6609 45.1607 18.3206 45.0099 18.9991H45.2361C45.613 18.8483 46.0089 18.7352 46.4235 18.6599C46.8382 18.5845 47.1209 18.5468 47.2717 18.5468C49.0057 18.5468 50.4759 18.9237 51.6822 19.6777C52.8885 20.4316 53.4917 21.374 53.4917 22.5049C53.4917 22.8065 53.3974 23.0515 53.2089 23.24C53.0204 23.4285 52.7754 23.5604 52.4738 23.6358C51.2676 23.9374 49.8728 24.239 48.2895 24.5405C46.7062 24.8421 45.3869 25.106 44.3314 25.3322C44.256 26.0861 44.1617 27.0285 44.0486 28.1594C43.9355 29.2903 43.8413 30.3081 43.7659 31.2129C44.8968 31.0621 46.1031 30.8171 47.3848 30.4778ZM50.0424 76.2228C50.6833 76.3736 51.3429 76.5243 52.0215 76.6751C53.3032 77.2029 54.7733 77.9191 56.432 78.8238C58.0907 79.7286 59.5608 80.5579 60.8425 81.3118C62.5012 82.3673 64.0279 83.5736 65.4227 84.9307C66.8175 86.2878 67.7787 87.4187 68.3065 88.3234C68.7588 89.1527 69.1358 90.1517 69.4374 91.3203C69.7389 92.4889 69.8897 93.5633 69.8897 94.5434C69.8897 95.1465 69.7766 95.8628 69.5505 96.6921C69.3243 97.5214 69.0604 98.2754 68.7588 98.9539C68.4573 99.4817 68.0238 99.9152 67.4583 100.254C66.8928 100.594 66.3462 100.763 65.8185 100.763C65.1399 100.763 64.4803 100.688 63.8394 100.537C63.1986 100.386 62.7651 100.16 62.5389 99.8586C62.0111 99.3309 61.2383 98.3884 60.2205 97.0314C59.2027 95.6743 58.2038 94.1664 57.2236 92.5078C55.7912 89.7936 54.4341 87.3056 53.1524 85.0438C51.8707 82.782 50.966 81.3872 50.4382 80.8595C49.8351 80.0301 49.2885 79.2385 48.7984 78.4846C48.3084 77.7306 48.0633 77.2029 48.0633 76.9013C48.0633 76.5997 48.1199 76.3736 48.233 76.2228C48.3461 76.072 48.4403 75.9966 48.5157 75.9966C48.8927 75.9966 49.4016 76.072 50.0424 76.2228Z" fill="white"/>
<path d="M117.331 27.6506C118.5 27.8391 119.612 28.0841 120.667 28.3857C120.818 28.4611 121.025 28.5553 121.289 28.6684C121.553 28.7815 121.798 28.9134 122.024 29.0642C125.643 28.9134 129.601 28.6495 133.899 28.2726C138.196 27.8956 141.74 27.4432 144.529 26.9155C146.791 26.5385 149.43 25.9919 152.446 25.2757C155.461 24.5594 158.062 23.8244 160.249 23.0704C161.003 22.7689 161.851 22.5238 162.793 22.3353C163.736 22.1469 164.471 22.0526 164.999 22.0526C165.828 22.0526 167.147 22.4296 168.957 23.1835C170.766 23.9374 172.613 24.8799 174.498 26.0108C176.685 27.5186 178.532 29.0265 180.04 30.5344C181.547 32.0422 182.301 33.2108 182.301 34.0402C182.301 34.4171 182.151 34.8695 181.849 35.3973C181.547 35.925 181.208 36.3774 180.831 36.7543C179.7 37.7345 178.569 39.035 177.439 40.6559C176.308 42.2769 175.441 43.7659 174.837 45.123C173.631 47.234 172.444 50.2121 171.275 54.0571C170.107 57.9022 169.258 61.6719 168.731 65.3662C168.655 65.5169 168.599 65.6866 168.561 65.8751C168.523 66.0635 168.467 66.2332 168.391 66.384C169.145 67.5903 169.786 68.7777 170.314 69.9463C170.842 71.1149 171.105 71.9631 171.105 72.4908C171.03 72.6416 170.879 72.7924 170.653 72.9432C170.427 73.094 170.201 73.1694 169.975 73.1694C166.054 73.1694 161.531 73.3202 156.404 73.6217C151.277 73.9233 146.829 74.338 143.059 74.8657C140.27 75.2427 137.574 75.582 134.973 75.8835C132.372 76.1851 130.657 76.3736 129.828 76.449L130.054 78.5977C129.978 80.0302 129.583 81.1988 128.866 82.1035C128.15 83.0082 127.302 83.4606 126.322 83.4606C125.794 83.4606 125.172 83.2721 124.456 82.8951C123.74 82.5182 123.118 82.0658 122.59 81.538C122.137 81.0103 121.76 80.4637 121.459 79.8982C121.157 79.3328 121.007 78.8993 121.007 78.5977C120.479 76.6375 119.876 73.3202 119.197 68.6458C118.519 63.9714 117.991 59.1085 117.614 54.0571C117.237 51.0414 116.709 47.9314 116.031 44.7272C115.352 41.523 114.711 39.0915 114.108 37.4329C113.731 35.8496 113.184 34.2664 112.468 32.6831C111.752 31.0998 111.055 29.9312 110.376 29.1773C110.376 28.6495 110.753 28.216 111.507 27.8768C112.261 27.5375 113.241 27.3679 114.447 27.3679C115.201 27.3679 116.162 27.4621 117.331 27.6506ZM135.03 68.0238C137.593 67.6845 140.043 67.3641 142.381 67.0625C145.17 66.6855 148.129 66.2143 151.258 65.6489C154.387 65.0834 156.781 64.5368 158.439 64.0091C159.043 62.5766 159.665 60.4467 160.305 57.6195C160.946 54.7922 161.493 51.9838 161.945 49.1943C162.473 46.7063 162.906 44.124 163.246 41.4476C163.585 38.7711 163.755 36.6036 163.755 34.9449C163.755 33.8894 163.491 33.0224 162.963 32.3438C162.435 31.6653 161.757 31.326 160.927 31.326C159.721 31.326 157.384 31.4956 153.916 31.8349C150.448 32.1742 146.716 32.6454 142.72 33.2485C139.026 33.7763 135.501 34.2475 132.146 34.6622C128.791 35.0768 126.435 35.3596 125.078 35.5103L128.923 68.7589C130.431 68.6081 132.466 68.363 135.03 68.0238Z" fill="white"/>
<path d="M218.66 14.5887C219.829 14.8903 220.941 15.3049 221.996 15.8327C222.147 15.9081 222.316 15.9835 222.505 16.0589C222.693 16.1342 222.863 16.2096 223.014 16.285C224.145 16.2096 225.332 16.1342 226.576 16.0589C227.82 15.9835 228.744 15.9081 229.347 15.8327C233.72 15.3803 238.752 14.796 244.444 14.0798C250.137 13.3635 255.094 12.7415 259.316 12.2138C261.276 11.9122 263.312 11.5352 265.423 11.0829C267.534 10.6305 269.192 10.2159 270.399 9.83889C270.851 9.6881 271.303 9.55616 271.756 9.44307C272.208 9.32998 272.547 9.27344 272.774 9.27344C273.226 9.27344 274.074 9.42422 275.318 9.7258C276.562 10.0274 277.9 10.4043 279.333 10.8567C280.841 11.5352 282.122 12.2703 283.178 13.062C284.233 13.8536 284.761 14.5133 284.761 15.041C284.761 15.1918 284.742 15.3992 284.705 15.663C284.667 15.9269 284.61 16.1719 284.535 16.3981C284.158 18.283 283.819 21.5249 283.517 26.1239C283.216 30.7229 283.065 35.5858 283.065 40.7125C283.065 41.768 283.178 44.633 283.404 49.3074C283.63 53.9818 283.894 59.2593 284.196 65.14C284.497 69.739 284.742 74.0741 284.931 78.1454C285.119 82.2166 285.213 85.0439 285.213 86.6271C285.213 87.3811 284.893 88.5308 284.252 90.0764C283.611 91.622 282.801 93.1487 281.821 94.6565C280.69 96.0136 279.502 97.1445 278.258 98.0492C277.014 98.954 276.015 99.4063 275.262 99.4063C271.115 95.7874 267.609 92.7152 264.744 90.1895C261.879 87.6638 260.447 86.3256 260.447 86.1748C260.447 85.8732 260.503 85.647 260.616 85.4962C260.729 85.3455 260.824 85.2701 260.899 85.2701C263.236 85.3454 265.366 85.4397 267.289 85.5528C269.211 85.6659 270.512 85.7224 271.19 85.7224C271.718 85.7224 272.17 85.1947 272.547 84.1392C272.924 83.0836 273.151 81.8396 273.226 80.4072C273.452 78.2208 273.641 73.9987 273.791 67.7411C273.942 61.4834 274.018 54.7734 274.018 47.611C274.018 44.6707 273.904 40.4863 273.678 35.058C273.452 29.6297 273.151 24.2767 272.774 18.9992C272.774 18.6222 272.51 18.3018 271.982 18.0379C271.454 17.774 270.776 17.6421 269.946 17.6421C268.589 17.6421 266.516 17.7175 263.726 17.8683C260.937 18.0191 258.147 18.1699 255.358 18.3207C251.362 18.6222 246.367 19.0934 240.373 19.7343C234.379 20.3751 228.895 21.0348 223.919 21.7134V27.3679C223.843 38.2999 223.73 49.3639 223.579 60.5598C223.429 71.7558 223.278 80.2941 223.127 86.1748C223.052 86.7025 222.844 87.4188 222.505 88.3235C222.166 89.2282 221.732 90.0575 221.204 90.8115C220.677 91.3392 220.13 91.7916 219.565 92.1686C218.999 92.5455 218.528 92.734 218.151 92.734C217.472 92.734 216.775 92.357 216.059 91.6031C215.343 90.8492 214.758 89.8691 214.306 88.6628C213.854 87.6073 213.495 86.6083 213.232 85.6659C212.968 84.7234 212.836 83.9884 212.836 83.4606C212.911 83.4606 212.968 83.3098 213.005 83.0083C213.043 82.7067 213.1 82.3297 213.175 81.8773C213.627 78.7862 214.061 75.6197 214.476 72.3778C214.89 69.1359 215.135 66.6856 215.211 65.0269C215.512 61.1064 215.738 55.8666 215.889 49.3074C216.04 42.7481 216.115 36.4905 216.115 30.5344C215.965 27.4433 215.72 24.5406 215.38 21.8264C215.041 19.1123 214.683 17.3028 214.306 16.3981C214.231 16.0965 214.174 15.8138 214.136 15.5499C214.099 15.2861 214.08 15.1164 214.08 15.041C214.08 14.7395 214.231 14.5133 214.532 14.3625C214.834 14.2117 215.248 14.1363 215.776 14.1363C216.53 14.1363 217.491 14.2871 218.66 14.5887ZM232.853 47.9503L235.115 48.4026C235.265 48.478 235.454 48.5534 235.68 48.6288C235.906 48.7042 236.057 48.7796 236.132 48.855C237.489 48.7042 238.978 48.4592 240.599 48.1199C242.22 47.7807 243.634 47.4602 244.84 47.1587C245.82 46.8571 246.989 46.4047 248.346 45.8016C249.703 45.1984 250.872 44.633 251.852 44.1052C252.153 43.879 252.512 43.6906 252.926 43.5398C253.341 43.389 253.661 43.3136 253.887 43.3136C254.566 43.3136 255.565 43.5963 256.884 44.1618C258.204 44.7272 259.504 45.4246 260.786 46.2539C262.369 47.3848 263.67 48.4969 264.688 49.5901C265.705 50.6833 266.214 51.5315 266.214 52.1346C266.214 52.21 266.158 52.3231 266.045 52.4739C265.932 52.6247 265.8 52.7755 265.649 52.9263C265.121 53.2278 264.593 53.6236 264.066 54.1137C263.538 54.6038 263.123 55.0373 262.822 55.4142C262.294 56.0174 261.766 56.8844 261.238 58.0153C260.711 59.1462 260.296 60.2771 259.994 61.408C259.919 61.7096 259.806 62.0112 259.655 62.3127C259.504 62.6143 259.278 62.8405 258.977 62.9913C259.504 63.7452 259.957 64.5368 260.334 65.3662C260.711 66.1955 260.899 66.7987 260.899 67.1756C260.824 67.251 260.748 67.3264 260.673 67.4018C260.598 67.4772 260.484 67.5149 260.334 67.5149C258.373 67.5149 256.093 67.5903 253.492 67.7411C250.891 67.8919 248.61 68.1557 246.65 68.5327C244.991 68.7589 243.483 68.9474 242.126 69.0982C240.769 69.2489 239.864 69.3243 239.412 69.3243L239.525 70.229C239.45 71.2092 239.186 71.982 238.733 72.5474C238.281 73.1129 237.753 73.3956 237.15 73.3956C236.622 73.3956 236.132 73.2636 235.68 72.9998C235.228 72.7359 234.813 72.4532 234.436 72.1516C234.134 71.7746 233.871 71.4165 233.644 71.0772C233.418 70.738 233.305 70.4552 233.305 70.229C233.079 69.3243 232.796 67.8353 232.457 65.762C232.118 63.6887 231.835 61.5965 231.609 59.4855C231.458 58.2038 231.232 56.8656 230.93 55.4708C230.629 54.076 230.289 53.0016 229.912 52.2477C229.762 51.4938 229.517 50.7775 229.177 50.099C228.838 49.4205 228.48 48.9304 228.103 48.6288C228.103 48.3273 228.367 48.1011 228.895 47.9503C229.422 47.7995 230.101 47.7241 230.93 47.7241C231.458 47.7241 232.099 47.7995 232.853 47.9503ZM255.867 26.7459C256.507 26.9344 257.205 27.1794 257.959 27.481C258.788 28.0087 259.485 28.593 260.051 29.2339C260.616 29.8747 260.899 30.459 260.899 30.9868C260.899 31.2883 260.861 31.6653 260.786 32.1177C260.711 32.57 260.598 32.9847 260.447 33.3617C260.296 33.6632 260.089 33.9648 259.825 34.2664C259.561 34.5679 259.24 34.7941 258.863 34.9449C257.431 35.2465 255.716 35.5481 253.718 35.8496C251.72 36.1512 249.967 36.3774 248.459 36.5282C247.404 36.679 246.329 36.8109 245.236 36.924C244.143 37.0371 243.332 37.0936 242.805 37.0936C240.844 37.0936 238.997 36.8298 237.263 36.302C235.529 35.7742 234.361 35.1334 233.757 34.3795C233.305 33.8517 232.928 33.3428 232.627 32.8527C232.325 32.3627 232.174 32.0046 232.174 31.7784C232.174 31.5522 232.25 31.3637 232.4 31.2129C232.551 31.0621 232.74 30.9868 232.966 30.9868C235.378 30.836 237.848 30.5909 240.373 30.2517C242.899 29.9124 244.878 29.5543 246.31 29.1773C247.441 28.8757 248.648 28.4988 249.929 28.0464C251.211 27.594 252.229 27.2171 252.983 26.9155C253.209 26.7647 253.454 26.6516 253.718 26.5762C253.982 26.5008 254.189 26.4631 254.34 26.4631C254.717 26.4631 255.226 26.5574 255.867 26.7459ZM241.73 63.5002C242.899 63.3117 243.973 63.1044 244.953 62.8782C246.084 62.7274 247.309 62.5012 248.629 62.1996C249.948 61.8981 250.985 61.6342 251.739 61.408C251.89 60.9557 252.003 60.296 252.078 59.4289C252.153 58.5619 252.229 57.7514 252.304 56.9975C252.455 56.1682 252.549 55.3577 252.587 54.5661C252.625 53.7744 252.643 53.1147 252.643 52.587C252.643 51.9838 252.455 51.4561 252.078 51.0037C251.701 50.5514 251.249 50.3252 250.721 50.3252C250.193 50.3252 249.27 50.476 247.95 50.7775C246.631 51.0791 245.217 51.4561 243.709 51.9084C242.729 52.21 241.693 52.4927 240.599 52.7566C239.506 53.0205 238.658 53.2278 238.055 53.3786L238.96 63.896C239.638 63.8206 240.562 63.6887 241.73 63.5002Z" fill="white"/>
<path d="M345.717 30.2516C346.621 30.6663 347.677 31.2129 348.883 31.8914C350.09 32.6454 351.107 33.3239 351.937 33.9271C352.766 34.5302 353.181 35.0203 353.181 35.3972C353.181 35.4726 353.105 35.5669 352.954 35.68C352.804 35.793 352.653 35.925 352.502 36.0758C352.05 36.3773 351.597 36.7166 351.145 37.0936C350.693 37.4706 350.353 37.8475 350.127 38.2245C349.75 38.6015 349.354 39.1481 348.94 39.8643C348.525 40.5805 348.129 41.2779 347.752 41.9565C347.752 42.0319 347.733 42.0695 347.696 42.0695C347.658 42.0695 347.602 42.1072 347.526 42.1826C347.677 42.5596 347.828 42.9554 347.978 43.3701C348.129 43.7848 348.205 44.0675 348.205 44.2183C348.129 44.369 348.035 44.5198 347.922 44.6706C347.809 44.8214 347.677 44.8968 347.526 44.8968C345.189 44.8968 342.531 45.0476 339.553 45.3492C336.575 45.6507 333.993 46.0654 331.807 46.5932C330.073 46.9701 328.47 47.3094 327 47.611C325.53 47.9125 324.493 48.101 323.89 48.1764C323.815 49.0811 323.645 50.0801 323.381 51.1733C323.118 52.2665 322.872 53.1147 322.646 53.7178C322.119 55.6027 321.346 57.4875 320.328 59.3724C319.31 61.2572 318.387 62.7274 317.557 63.7829C316.652 64.763 315.409 65.7996 313.825 66.8929C312.242 67.9861 310.696 68.8719 309.189 69.5505C308.435 69.852 307.7 70.1159 306.983 70.3421C306.267 70.5683 305.796 70.6814 305.57 70.6814C305.494 70.6814 305.4 70.6248 305.287 70.5117C305.174 70.3986 305.117 70.3044 305.117 70.229C306.701 68.7965 308.265 67.1379 309.811 65.253C311.356 63.3682 312.506 61.7849 313.26 60.5033C314.014 59.2216 314.749 57.6006 315.465 55.6404C316.181 53.6801 316.69 51.8707 316.992 50.212C317.293 48.7796 317.501 46.9324 317.614 44.6706C317.727 42.4088 317.783 40.3355 317.783 38.4507C317.783 37.8475 317.576 37.037 317.161 36.0192C316.747 35.0014 316.2 34.0401 315.522 33.1354C315.446 33.06 315.39 32.9846 315.352 32.9092C315.314 32.8339 315.295 32.7585 315.295 32.6831C315.295 32.3815 315.465 32.1553 315.804 32.0045C316.144 31.8537 316.539 31.7783 316.992 31.7783C317.896 31.7783 318.952 31.8726 320.158 32.0611C321.365 32.2496 322.345 32.4946 323.099 32.7962C323.249 32.8715 323.438 32.9469 323.664 33.0223C323.89 33.0977 324.041 33.1731 324.116 33.2485H324.625C324.814 33.2485 324.946 33.2108 325.021 33.1354C327.358 32.6077 329.752 32.1365 332.202 31.7218C334.653 31.3071 336.594 31.0244 338.027 30.8736C338.78 30.7982 339.648 30.6663 340.628 30.4778C341.608 30.2893 342.475 30.0443 343.229 29.7427C343.379 29.6673 343.549 29.6296 343.738 29.6296H344.133C344.284 29.6296 344.812 29.837 345.717 30.2516ZM369.522 48.7984C370.691 49.5147 371.275 50.4759 371.275 51.6822C371.275 51.9838 371.087 52.2854 370.71 52.5869C370.333 52.8885 369.843 53.1147 369.239 53.2655C368.561 53.3409 367.807 53.4351 366.978 53.5482C366.148 53.6613 365.394 53.7932 364.716 53.944C365.394 54.2456 365.96 54.6037 366.412 55.0184C366.865 55.433 367.091 55.7912 367.091 56.0927C367.091 56.3943 367.053 56.7524 366.978 57.1671C366.902 57.5818 366.789 57.9776 366.638 58.3545C366.111 58.8823 365.639 59.8624 365.225 61.2949C364.81 62.7274 364.603 64.2352 364.603 65.8185V76.6751C366.337 76.3736 368.203 76.0532 370.201 75.7139C372.199 75.3746 373.838 75.0919 375.12 74.8657C375.422 74.7903 375.704 74.7338 375.968 74.6961C376.232 74.6584 376.402 74.6395 376.477 74.6395C377.307 74.6395 378.362 74.8469 379.644 75.2615C380.925 75.6762 382.169 76.1851 383.376 76.7882C384.356 77.5422 385.166 78.4469 385.807 79.5024C386.448 80.5579 386.768 81.4626 386.768 82.2166C386.768 82.9705 386.448 83.5925 385.807 84.0826C385.166 84.5726 384.431 84.8176 383.602 84.8176C382.848 84.8176 381.604 84.7611 379.87 84.648C378.136 84.5349 376.402 84.4407 374.668 84.3653C373.461 84.2145 372.236 84.1014 370.992 84.026C369.748 83.9506 368.712 83.9129 367.882 83.9129H366.129C365.489 83.9129 364.904 83.9506 364.377 84.026C364.301 85.2323 364.263 86.4009 364.263 87.5318C364.263 88.6627 364.226 89.5297 364.15 90.1329C364.075 91.7915 363.868 93.5067 363.528 95.2785C363.189 97.0502 362.831 98.4639 362.454 99.5194C362.077 100.499 361.625 101.31 361.097 101.951C360.569 102.592 360.117 102.912 359.74 102.912C359.363 102.912 359.005 102.554 358.665 101.838C358.326 101.121 358.119 100.273 358.044 99.2932C357.893 98.9916 357.761 97.4084 357.648 94.5434C357.535 91.6785 357.44 88.2104 357.365 84.1391C355.028 84.2145 352.521 84.3464 349.844 84.5349C347.168 84.7234 344.963 84.893 343.229 85.0438C340.967 85.27 338.309 85.6281 335.256 86.1182C332.202 86.6082 329.582 87.1548 327.396 87.758C326.944 87.9088 326.378 88.0407 325.7 88.1538C325.021 88.2669 324.418 88.3234 323.89 88.3234C323.212 88.3234 322.364 88.0973 321.346 87.6449C320.328 87.1925 319.404 86.6648 318.575 86.0616C317.896 85.4585 317.331 84.8553 316.879 84.2522C316.426 83.649 316.2 83.2344 316.2 83.0082C316.2 82.6312 316.257 82.3297 316.37 82.1035C316.483 81.8773 316.69 81.7642 316.992 81.7642C318.5 81.7642 321.12 81.6134 324.852 81.3119C328.584 81.0103 332.523 80.6333 336.669 80.1809L336.556 69.5505C336.556 68.118 336.462 66.5347 336.274 64.8007C336.085 63.0666 335.916 61.5965 335.765 60.3902C335.689 59.9378 335.501 59.4289 335.199 58.8634C334.898 58.298 334.558 57.8268 334.181 57.4498C333.578 57.3744 332.9 57.2613 332.146 57.1105C331.392 56.9598 330.751 56.7713 330.223 56.5451C329.696 56.2435 329.262 55.9419 328.923 55.6404C328.584 55.3388 328.414 55.0372 328.414 54.7357C328.414 54.3587 328.489 54.0006 328.64 53.6613C328.791 53.322 329.017 53.1147 329.319 53.0393C334.219 52.5115 339.685 51.7765 345.717 50.834C351.748 49.8916 356.837 49.0434 360.984 48.2895C361.813 48.1387 362.605 48.0068 363.359 47.8937C364.113 47.7806 364.678 47.7241 365.055 47.7241C366.865 47.7241 368.354 48.0822 369.522 48.7984ZM348.431 10.1781C349.336 10.7813 349.788 11.4975 349.788 12.3268C349.788 12.6284 349.656 12.93 349.392 13.2316C349.128 13.5331 348.808 13.7593 348.431 13.9101C347.074 14.2117 345.547 14.5509 343.851 14.9279C342.154 15.3049 340.703 15.6064 339.497 15.8326C339.421 16.3604 339.346 17.0389 339.271 17.8682C339.195 18.6976 339.12 19.4138 339.044 20.017C339.195 19.9416 339.365 19.9039 339.553 19.9039C339.742 19.9039 339.874 19.8662 339.949 19.7908C340.251 19.64 340.552 19.5458 340.854 19.5081C341.155 19.4704 341.419 19.4515 341.645 19.4515C342.173 19.4515 342.833 19.6023 343.625 19.9039C344.416 20.2054 345.076 20.5824 345.604 21.0348C346.131 21.4117 346.565 21.9583 346.904 22.6746C347.243 23.3908 347.413 24.0882 347.413 24.7668C347.413 25.0683 347.3 25.2945 347.074 25.4453C346.848 25.5961 346.546 25.6715 346.169 25.6715C344.36 25.6715 342.305 25.7469 340.006 25.8977C337.706 26.0484 335.802 26.2746 334.295 26.5762C333.616 26.6516 332.787 26.8212 331.807 27.0851C330.826 27.349 329.884 27.6317 328.979 27.9333C328.678 28.0087 328.414 28.0841 328.188 28.1595C327.962 28.2348 327.773 28.2725 327.622 28.2725C327.321 28.2725 326.849 28.1218 326.209 27.8202C325.568 27.5186 324.983 27.1793 324.456 26.8024C323.928 26.4254 323.513 26.0673 323.212 25.728C322.91 25.3887 322.759 25.0683 322.759 24.7668C322.759 24.616 322.797 24.5029 322.872 24.4275C322.948 24.3521 323.023 24.3144 323.099 24.3144C324.607 24.0128 326.227 23.6735 327.962 23.2966C329.696 22.9196 331.128 22.5803 332.259 22.2788V19.5646C332.259 18.5845 332.297 17.7929 332.372 17.1897C330.713 17.4913 329.149 17.7175 327.679 17.8682C326.209 18.019 325.247 18.0944 324.795 18.0944C324.116 18.0944 323.419 18.019 322.703 17.8682C321.987 17.7175 321.365 17.5667 320.837 17.4159C320.46 17.1897 320.121 16.9258 319.819 16.6243C319.517 16.3227 319.367 16.0965 319.367 15.9457C319.367 15.6441 319.442 15.3614 319.593 15.0975C319.744 14.8337 319.97 14.664 320.271 14.5886C322.005 14.2871 324.041 13.9101 326.378 13.4577C328.715 13.0054 330.713 12.6284 332.372 12.3268C332.372 10.5928 332.353 9.02837 332.315 7.63359C332.278 6.23881 332.184 5.35294 332.033 4.97597C331.957 4.599 331.844 4.20319 331.693 3.78852C331.543 3.37386 331.392 3.01574 331.241 2.71416C331.09 2.41259 330.94 2.14871 330.789 1.92253C330.638 1.69635 330.563 1.50787 330.563 1.35708C330.563 0.980115 330.713 0.659693 331.015 0.395816C331.317 0.131939 331.693 0 332.146 0C332.975 0 333.918 0.131939 334.973 0.395816C336.029 0.659693 336.933 0.980115 337.687 1.35708C338.894 1.65866 339.855 2.07332 340.571 2.60107C341.287 3.12883 341.645 3.58119 341.645 3.95816C341.57 4.03355 341.513 4.20319 341.476 4.46706C341.438 4.73094 341.382 4.93827 341.306 5.08906C341.155 5.39063 340.967 6.05033 340.741 7.06814C340.515 8.08595 340.326 9.198 340.175 10.4043C340.477 10.3289 340.816 10.2347 341.193 10.1216C341.57 10.0085 341.872 9.91424 342.098 9.83885C342.701 9.68806 343.266 9.55612 343.794 9.44303C344.322 9.32994 344.699 9.2734 344.925 9.2734C346.358 9.2734 347.526 9.57497 348.431 10.1781ZM325.134 37.037V37.5459C325.059 38.5261 324.983 39.5627 324.908 40.6559C324.833 41.7491 324.72 42.7104 324.569 43.5397C325.247 43.3889 326.096 43.2193 327.113 43.0308C328.131 42.8423 329.055 42.6727 329.884 42.5219C330.035 41.0894 330.186 39.7135 330.336 38.3941C330.487 37.0747 330.563 36.0758 330.563 35.3972V35.2841C329.809 35.3595 328.923 35.5292 327.905 35.793C326.887 36.0569 326.001 36.302 325.247 36.5281C325.172 36.6789 325.134 36.8486 325.134 37.037ZM339.44 40.147C340.232 39.8454 340.891 39.6193 341.419 39.4685C341.57 39.3931 341.702 39.3365 341.815 39.2988C341.928 39.2611 342.022 39.2046 342.098 39.1292V38.6203C342.098 38.4318 342.135 38.2999 342.211 38.2245C342.286 37.8475 342.343 37.3763 342.381 36.8109C342.418 36.2454 342.437 35.7742 342.437 35.3972C342.437 35.0203 342.249 34.7187 341.872 34.4925C341.495 34.2663 341.005 34.1155 340.401 34.0401H339.214C338.724 34.0401 338.215 34.0778 337.687 34.1532C337.536 35.058 337.423 36.1512 337.348 37.4329C337.273 38.7145 337.235 39.8454 337.235 40.8256C337.913 40.6748 338.649 40.4486 339.44 40.147ZM357.252 70.3986V62.3127C357.252 61.031 357.158 59.7305 356.969 58.4111C356.781 57.0917 356.498 56.0173 356.121 55.188C354.689 55.4142 353.049 55.6404 351.202 55.8666C349.354 56.0927 347.715 56.2812 346.282 56.432C345.754 56.5074 345.189 56.5639 344.586 56.6016C343.983 56.6393 343.493 56.6959 343.116 56.7713C343.794 57.1482 344.322 57.5629 344.699 58.0153C345.076 58.4676 345.264 58.8823 345.264 59.2593C345.264 59.3347 345.245 59.41 345.208 59.4854C345.17 59.5608 345.076 59.6739 344.925 59.8247C344.85 59.9755 344.774 60.2205 344.699 60.5598C344.623 60.8991 344.548 61.2572 344.473 61.6342C345.076 61.4834 345.811 61.3137 346.678 61.1253C347.545 60.9368 348.242 60.8048 348.77 60.7294C348.996 60.654 349.204 60.5975 349.392 60.5598C349.581 60.5221 349.713 60.5033 349.788 60.5033C351.22 60.5033 352.408 60.8048 353.35 61.408C354.293 62.0111 354.764 62.7651 354.764 63.6698C354.764 63.7452 354.707 63.8394 354.594 63.9525C354.481 64.0656 354.349 64.1598 354.198 64.2352C353.218 64.4614 352.106 64.6687 350.862 64.8572C349.618 65.0457 348.582 65.2153 347.752 65.3661C346.998 65.4415 346.32 65.5358 345.717 65.6489C345.114 65.7619 344.737 65.8185 344.586 65.8185H343.907L343.681 70.5683C344.435 70.4175 345.302 70.2479 346.282 70.0594C347.262 69.8709 348.092 69.7013 348.77 69.5505C348.996 69.4751 349.204 69.4185 349.392 69.3808C349.581 69.3431 349.713 69.3243 349.788 69.3243C351.22 69.3243 352.408 69.6259 353.35 70.229C354.293 70.8322 354.764 71.5861 354.764 72.4908C354.764 72.5662 354.707 72.6605 354.594 72.7735C354.481 72.8866 354.349 72.9809 354.198 73.0563C353.294 73.2824 352.238 73.5086 351.032 73.7348C349.826 73.961 348.808 74.1495 347.978 74.3003C347.3 74.3756 346.659 74.451 346.056 74.5264C345.453 74.6018 345.076 74.6395 344.925 74.6395H343.568L343.342 79.3893H343.907C344.133 79.3893 344.322 79.3516 344.473 79.2762C346.433 79.05 348.638 78.7862 351.088 78.4846C353.539 78.183 355.593 77.9191 357.252 77.693V70.3986ZM374.046 16.5677C374.159 16.53 374.253 16.5112 374.329 16.5112C374.479 16.4358 374.894 16.3981 375.572 16.3981H377.947C378.174 16.3981 378.494 16.2661 378.909 16.0023C379.323 15.7384 379.681 15.4557 379.983 15.1541C380.134 14.8525 380.322 14.6075 380.548 14.419C380.775 14.2305 380.925 14.1363 381.001 14.1363C381.529 14.1363 382.169 14.3059 382.923 14.6452C383.677 14.9845 384.394 15.418 385.072 15.9457C385.826 16.5489 386.448 17.284 386.938 18.151C387.428 19.018 387.673 19.7531 387.673 20.3562C387.673 20.4316 387.466 20.6767 387.051 21.0913C386.636 21.506 386.052 21.9018 385.298 22.2788C384.394 22.5803 383.225 22.8442 381.792 23.0704C380.36 23.2966 379.078 23.4097 377.947 23.4097C376.213 23.4097 374.536 23.3154 372.915 23.1269C371.294 22.9385 370.182 22.6934 369.579 22.3919C369.126 22.1657 368.674 21.8264 368.222 21.374C367.769 20.9217 367.468 20.507 367.317 20.1301C367.166 19.7531 367.034 19.2442 366.921 18.6033C366.808 17.9625 366.751 17.3782 366.751 16.8504C366.751 16.3981 366.789 15.908 366.865 15.3803C366.94 14.8525 367.015 14.4002 367.091 14.0232C367.241 13.4954 367.336 13.0054 367.373 12.553C367.411 12.1007 367.43 11.7614 367.43 11.5352C367.505 11.1582 367.43 10.8378 367.204 10.5739C366.978 10.3101 366.676 10.1781 366.299 10.1781C365.319 10.7059 364.226 11.1959 363.019 11.6483C361.813 12.1007 360.72 12.3268 359.74 12.3268C359.74 13.5331 359.74 14.7583 359.683 16.0023C359.646 17.2463 359.551 18.2829 359.401 19.1122C359.25 20.017 359.005 20.9405 358.665 21.883C358.326 22.8254 358.043 23.5982 357.817 24.2013C357.44 24.9552 356.856 25.728 356.064 26.5196C355.273 27.3113 354.5 27.8956 353.746 28.2725C353.294 28.5741 352.841 28.8003 352.389 28.9511C351.937 29.1019 351.635 29.1773 351.484 29.1773C351.635 28.8003 351.786 28.3668 351.937 27.8767C352.087 27.3867 352.201 26.9155 352.276 26.4631C352.427 25.7846 352.596 24.9929 352.785 24.0882C352.973 23.1835 353.105 22.3919 353.181 21.7133C353.331 20.9594 353.445 19.6588 353.52 17.8117C353.595 15.9646 353.633 14.0986 353.633 12.2137C353.633 11.686 353.558 11.1205 353.407 10.5174C353.256 9.91424 353.105 9.46188 352.954 9.16031C352.879 8.85873 352.672 8.55716 352.332 8.25558C351.993 7.95401 351.522 7.65244 350.919 7.35086C350.843 7.27547 350.787 7.23777 350.749 7.23777C350.711 7.23777 350.693 7.20008 350.693 7.12468C350.693 6.82311 350.9 6.59693 351.315 6.44614C351.729 6.29535 352.201 6.21996 352.728 6.21996C353.708 6.21996 354.802 6.3519 356.008 6.61578C357.214 6.87965 358.194 7.20008 358.948 7.57704C359.25 7.65244 359.514 7.76553 359.74 7.91631C359.966 8.0671 360.117 8.21789 360.192 8.36867C360.569 8.21789 360.965 8.0671 361.38 7.91631C361.794 7.76553 362.152 7.61474 362.454 7.46395C362.982 7.08699 363.679 6.59693 364.546 5.99378C365.413 5.39063 366.224 4.74979 366.978 4.07125C367.128 3.92046 367.279 3.78852 367.43 3.67543C367.581 3.56234 367.732 3.5058 367.882 3.5058C368.259 3.5058 368.957 3.65658 369.975 3.95816C370.992 4.25973 372.104 4.6367 373.311 5.08906C374.592 5.46603 375.667 5.91839 376.534 6.44614C377.401 6.9739 377.834 7.46395 377.834 7.91631C377.834 8.0671 377.778 8.25558 377.665 8.48176C377.552 8.70794 377.42 8.89643 377.269 9.04722C376.515 9.65036 375.893 10.3101 375.403 11.0263C374.913 11.7425 374.592 12.3645 374.442 12.8923C374.215 13.4954 374.027 14.1551 373.876 14.8714C373.725 15.5876 373.65 16.2096 373.65 16.7373C373.801 16.662 373.933 16.6054 374.046 16.5677ZM373.593 24.4275C374.536 24.8044 375.459 25.2568 376.364 25.7846C377.646 26.5385 378.682 27.3113 379.474 28.1029C380.266 28.8945 380.662 29.5542 380.662 30.082C380.662 30.2328 380.586 30.3647 380.435 30.4778C380.285 30.5909 380.134 30.6851 379.983 30.7605C379.078 31.2883 378.268 31.8349 377.552 32.4003C376.835 32.9658 376.402 33.437 376.251 33.814C375.572 34.6433 374.8 35.5857 373.933 36.6412C373.066 37.6967 372.293 38.5261 371.614 39.1292C373.499 40.2601 375.516 41.391 377.665 42.5219C379.813 43.6528 381.604 44.4821 383.036 45.0099C384.846 45.613 387.24 46.4047 390.218 47.3848C393.196 48.3649 396.042 49.2319 398.756 49.9859C399.133 50.0613 399.435 50.1178 399.661 50.1555C399.887 50.1932 400 50.2497 400 50.3251C400 50.5513 399.811 50.7586 399.435 50.9471C399.058 51.1356 398.605 51.3052 398.077 51.456C395.062 52.21 391.914 52.8131 388.634 53.2655C385.355 53.7178 382.81 53.944 381.001 53.944C380.247 53.944 379.418 53.7367 378.513 53.322C377.608 52.9074 376.854 52.3985 376.251 51.7953C375.045 50.589 373.575 49.1188 371.841 47.3848C370.106 45.6507 368.561 44.0675 367.204 42.635C366.224 43.3135 365.055 43.9921 363.698 44.6706C362.341 45.3492 361.135 45.8769 360.079 46.2539C358.948 46.6309 357.553 46.9701 355.895 47.2717C354.236 47.5733 352.766 47.7241 351.484 47.7241C351.183 47.7241 350.975 47.6675 350.862 47.5544C350.749 47.4413 350.693 47.3471 350.693 47.2717C350.693 47.1963 350.768 47.1586 350.919 47.1586C351.07 47.1586 351.296 47.1209 351.597 47.0455C352.351 46.8193 353.331 46.4424 354.538 45.9146C355.744 45.3869 356.913 44.8591 358.044 44.3314C359.099 43.8036 360.268 43.1062 361.549 42.2392C362.831 41.3722 363.849 40.5617 364.603 39.8078C364.075 39.2046 363.434 38.5638 362.68 37.8852C361.926 37.2067 361.285 36.6789 360.758 36.302C360.381 36.0004 359.759 35.68 358.892 35.3407C358.025 35.0014 357.063 34.7187 356.008 34.4925C355.48 34.3417 354.99 34.1721 354.538 33.9836C354.085 33.7951 353.859 33.6632 353.859 33.5878C353.859 33.2862 354.104 33.06 354.594 32.9092C355.084 32.7585 355.706 32.6831 356.46 32.6831C357.968 32.6831 359.683 32.9846 361.606 33.5878C363.528 34.1909 365.168 34.9072 366.525 35.7365C366.676 35.8119 366.827 35.9061 366.978 36.0192C367.128 36.1323 367.242 36.2266 367.317 36.302C367.694 35.6234 368.146 34.7752 368.674 33.7574C369.202 32.7396 369.654 31.816 370.031 30.9867C370.031 30.6097 369.956 30.2893 369.805 30.0254C369.654 29.7616 369.428 29.6296 369.126 29.6296C367.468 30.082 365.903 30.4778 364.433 30.8171C362.963 31.1563 361.926 31.326 361.323 31.326C361.022 31.326 360.626 31.2506 360.136 31.0998C359.646 30.949 359.099 30.7982 358.496 30.6474C358.044 30.4967 357.648 30.2893 357.308 30.0254C356.969 29.7616 356.8 29.4788 356.8 29.1773C356.8 28.8757 356.856 28.6495 356.969 28.4987C357.082 28.3479 357.176 28.2725 357.252 28.2725C358.986 28.0464 361.229 27.4998 363.981 26.6327C366.733 25.7657 369.277 24.8421 371.614 23.862C371.991 23.862 372.651 24.0505 373.593 24.4275Z" fill="white"/>
</g>
</g>
<defs>
<clipPath id="clip0_23_14">
<rect width="400" height="102.912" fill="white"/>
</clipPath>
</defs>
</svg>
