<svg width="64" height="64" viewBox="0 0 64 64" fill="none" xmlns="http://www.w3.org/2000/svg">
<path opacity="0.6" fill-rule="evenodd" clip-rule="evenodd" d="M8 0C3.58173 0 0 3.58167 0 8V56C0 60.4183 3.58173 64 8 64H56C60.4183 64 64 60.4183 64 56V8C64 3.58167 60.4183 0 56 0H8ZM21.7606 38.464L21.7166 38.5081H21.6725C21.6725 38.5081 21.7166 38.5081 21.7606 38.464ZM21.6725 38.5081C21.6725 38.528 21.6725 38.5388 21.6766 38.5406C21.6816 38.543 21.6925 38.5321 21.7166 38.5081H21.8046C21.841 38.4352 21.8171 38.4226 21.7828 38.4454L22.0245 38.244C22.3276 38.0526 22.5208 37.8959 22.6713 37.7738C22.9357 37.5592 23.0679 37.452 23.4326 37.452C24.0046 37.188 25.2806 36.0439 25.2806 36.0439C26.1801 35.0284 26.2759 34.9122 26.3757 34.7994C26.4272 34.7412 26.4797 34.6838 26.6446 34.504L27.2166 34.196C27.7446 33.712 28.2286 33.14 28.8885 32.304C29.6365 32.04 30.5165 31.424 30.5165 31.424C30.5165 31.424 30.7806 30.104 31.3086 29.84C31.467 29.5232 31.3561 29.5865 31.3466 29.5739C31.3403 29.5654 31.379 29.5232 31.5726 29.312L31.8365 28.696C31.8365 28.696 32.9806 28.3879 32.9806 28.124V27.86C32.9806 27.86 33.5085 27.5081 33.5085 26.7159C34.3005 26.7159 35.1365 26.7159 36.1926 26.98C36.397 26.9545 36.6459 26.9735 36.9135 26.9939C37.1067 27.0085 37.3096 27.024 37.5126 27.024C38.3486 27.024 40.1086 27.068 40.5926 26.892C41.4293 26.613 42.23 26.6589 42.9946 26.7028L43.2325 26.7159H43.8046L44.3326 27.5081V27.948C44.3326 27.948 44.3326 28.432 44.0685 28.96C43.8046 29.576 43.5406 31.292 43.5406 31.292C43.5406 31.292 43.8046 31.556 43.8046 32.172C43.8046 32.304 43.8705 32.436 43.9365 32.568C44.0026 32.7 44.0685 32.832 44.0685 32.964V34.02L44.5966 34.7679V35.032L45.1246 35.516H45.9166C47.5886 35.516 47.8525 34.24 47.8525 33.052V20.3361C48.039 19.3291 48.0358 18.7963 48.0306 17.9072C48.0296 17.7473 48.0286 17.5758 48.0286 17.3879C48.0286 17.0554 47.8831 16.7852 47.6636 16.3772C47.5637 16.1915 47.4484 15.9774 47.3246 15.7159C46.9725 14.968 46.4446 14.396 45.7845 14C44.9045 13.472 43.7606 13.1639 42.3965 12.988C41.0353 12.7888 41.052 13.5668 41.0665 14.2441C41.0712 14.4645 41.0757 14.6741 41.0326 14.8361C40.9006 15.276 41.6926 15.672 41.6926 15.672C41.8268 15.7466 41.9661 15.8009 42.1019 15.8539C42.3666 15.9572 42.618 16.0553 42.7925 16.288L43.2766 17.212L44.0685 18.928V19.808C44.0685 19.808 44.5966 20.3361 44.5966 20.864V23.064H42.9246C42.3945 23.2407 42.0024 23.1808 41.6163 23.1218C41.4256 23.0928 41.2363 23.064 41.0326 23.064H40.5046C39.7756 23.0957 38.4304 23.0817 37.4389 23.0714C37.0538 23.0674 36.7221 23.064 36.5005 23.064C35.4886 23.064 34.4766 23.196 33.5966 23.24L33.3766 23.3719C33.1566 22.8 32.7606 22.448 32.1006 22.228L31.3086 21.656H30.7806L30.5165 21.348L29.9446 21.1281L28.8885 20.6L28.0966 20.3361L29.1086 18.928C29.6365 18.708 30.2086 17.8719 30.2086 17.608V15.188C29.9446 14.8361 29.6365 14.308 29.6365 14.308C29.4166 13.604 29.0646 13.12 28.3605 12.988H27.2166C26.4204 13.3232 26.4224 13.7782 26.4243 14.2388L26.4246 14.308V15.7159C26.5126 16.244 26.4686 16.728 26.0726 17.256C24.7526 18.972 23.4326 20.072 23.4326 20.072L22.0245 21.1281L21.0126 22.228L20.3965 22.4919C19.8686 22.8 19.0765 23.328 19.0765 23.328H18.5486C17.7126 23.812 17.6686 24.6479 17.6686 25.484C17.6686 26.276 18.5486 26.804 18.5486 26.804H20.6606L21.8046 26.54C21.8046 26.54 21.8046 26.276 22.2886 26.012C23.1246 25.748 24.0046 25.22 24.0046 25.22L24.4886 24.34L25.0165 23.812L25.5446 23.548L26.6446 23.812C26.6446 23.812 26.6446 24.34 27.2166 24.692C27.7446 24.692 28.3605 25.22 28.3605 25.22L28.8885 26.012V27.42C28.8885 28.08 26.2046 30.632 24.7526 31.776C22.7726 32.524 22.2006 33.0081 21.8046 33.36C21.0566 34.02 18.9446 35.076 18.5486 35.252L17.1846 35.78C16.7446 36.22 16.6125 36.572 16.6566 36.924L16.1285 37.452C16.0845 37.672 16.0845 37.936 16.1285 38.244C16.3596 38.5906 16.5906 38.7013 16.8217 38.812C16.8546 38.8278 16.8876 38.8435 16.9205 38.86C17.2285 38.86 17.4705 38.9041 17.7125 38.948C17.9545 38.9919 18.1965 39.036 18.5046 39.036L19.3846 39.124C19.3846 39.124 19.6486 39.3879 20.1326 39.124C20.6606 39.124 21.2766 38.5081 21.2766 38.5081H21.6725ZM46.8406 43.04L46.2686 41.104C46.2686 41.104 46.2686 40.576 46.0486 40.2679C45.9611 40.1659 45.9026 40.0397 45.841 39.9069C45.7169 39.639 45.5804 39.3445 45.1686 39.168C44.9045 38.948 44.6406 38.684 44.6406 38.684C44.6406 38.684 44.1125 38.42 43.8486 37.804C43.8486 37.723 43.8486 37.6918 43.8333 37.6797C43.7989 37.6522 43.6866 37.723 43.3206 37.54C43.0126 37.276 41.6486 36.748 41.6486 36.748L40.5486 36.484L38.7006 36.22H37.0286V34.812L35.6646 33.8H35.1365L33.8166 34.328L32.9366 34.812C32.9806 34.856 33.1125 34.988 32.6725 35.9561L32.1446 37.012L31.7046 37.2321L31.6166 37.276C31.6166 37.276 31.628 37.276 31.645 37.2703C31.6614 37.2646 31.683 37.2537 31.7046 37.2321C31.7925 37.2321 31.7925 37.276 31.0446 37.804C30.1992 38.6831 30.1335 38.7827 30.0485 38.8616C30.0228 38.8854 29.9955 38.9072 29.9446 38.948C29.3286 39.476 28.8885 39.916 28.5806 40.84L27.7886 42.424L27.2606 43.568V44.8879L27.7886 47.0439C27.7886 47.0439 28.0526 47.308 28.3166 47.924C28.5475 48.2209 28.7291 48.5179 28.8936 48.7871C29.1677 49.2357 29.3945 49.6071 29.7245 49.772C29.7994 49.8264 29.8828 49.8904 29.9742 49.9606C30.4736 50.3439 31.2148 50.9128 32.1446 51.136L33.4645 51.4C33.4645 51.4 33.2006 50.8719 34.3445 51.4L35.4006 51.972H39.7566C40.0206 51.6639 41.1646 51.136 41.4286 51.136C41.9125 50.8719 42.4406 50.8719 42.4406 50.8719C42.5565 50.7892 42.6287 50.7375 42.7043 50.6913C42.8295 50.6146 42.9638 50.5526 43.3206 50.3879C43.4827 50.3069 43.6697 50.2507 43.8586 50.194C44.2852 50.0659 44.7216 49.9349 44.9045 49.5081L45.1686 48.98L45.7845 48.452V47.924L46.8406 45.504C46.8406 45.504 46.5326 45.504 46.8406 44.8879C47.1046 44.624 46.8406 44.052 46.8406 44.052V43.04ZM42.1766 43.04V44.316L41.6486 44.624C41.4286 44.8879 41.6486 45.152 41.6486 45.152V45.7679C41.6486 45.7679 41.4286 46.516 41.1646 47.0439L40.5486 47.572L38.7006 48.452C38.7006 48.452 38.0845 48.7159 37.5566 48.452C37.3069 48.3271 37.1262 48.3794 36.9119 48.4413C36.673 48.5103 36.3926 48.5912 35.9286 48.452L34.3445 47.924C33.8605 47.66 33.4206 47.4399 32.9366 47.0439C32.9366 47.0439 31.9246 46.252 31.9246 45.7679C31.9246 45.5454 31.8843 45.3688 31.8475 45.2069C31.7824 44.9209 31.7278 44.6813 31.9246 44.316C32.1446 44.052 31.9246 43.568 31.9246 43.568L32.4086 41.896V41.412L34.3445 39.3C34.3445 39.3 34.8286 39.036 35.1365 39.036C35.3149 38.8577 35.6136 38.9203 35.8973 38.9796C36.0336 39.0082 36.1663 39.036 36.2806 39.036C36.5446 38.772 37.0286 39.036 37.0286 39.036L38.7006 39.3C38.7006 39.3 39.4926 39.7841 39.7566 39.7841C41.2966 40.708 42.1766 41.764 42.1766 43.04Z" fill="white"/>
</svg>
