<svg width="64" height="64" viewBox="0 0 64 64" fill="none" xmlns="http://www.w3.org/2000/svg">
<path opacity="0.6" fill-rule="evenodd" clip-rule="evenodd" d="M8 0C3.58173 0 0 3.58167 0 8V56C0 60.4183 3.58173 64 8 64H56C60.4183 64 64 60.4183 64 56V8C64 3.58167 60.4183 0 56 0H8ZM36.7646 28.696C36.7206 28.696 36.5446 28.74 36.7206 27.5081L36.9406 26.012C36.9406 26.012 36.5005 25 36.5005 24.78L35.0926 23.196C34.8704 22.9261 34.671 22.639 34.4698 22.3492C34.1132 21.8359 33.7508 21.314 33.2446 20.864C32.7606 20.556 32.1446 20.292 31.3965 20.028C31.3965 20.028 30.6046 19.588 29.9886 19.588C29.5926 19.588 28.1406 19.104 28.1406 19.104C26.6885 18.444 25.1486 18.576 23.6965 18.972C23.3445 18.972 21.8486 19.632 21.8486 19.632C21.5619 19.8572 21.2561 20.0443 20.9402 20.2377C20.5773 20.4598 20.2009 20.6902 19.8246 20.996C19.5605 21.282 19.3625 21.579 19.1646 21.876C18.9666 22.173 18.7686 22.47 18.5046 22.756C17.5366 23.46 17.0966 24.296 16.8766 25.132C16.6066 26.1577 16.6182 27.2828 16.6269 28.1212C16.6323 28.6494 16.6366 29.0638 16.5685 29.2679C16.4366 33.624 17.0085 34.064 17.1846 34.24C17.5531 34.6316 17.7529 35.1438 17.9479 35.644C18.1254 36.0992 18.2991 36.5446 18.5926 36.88C19.4107 37.7308 20.5452 38.1193 21.5979 38.4797C21.9606 38.6039 22.3136 38.7247 22.6406 38.86C22.7343 38.8912 22.8489 38.9308 22.9762 38.9747C23.5656 39.1783 24.4269 39.476 24.7526 39.476H28.6686C28.6686 39.476 29.5926 39.696 29.9006 39.476C29.9567 39.4312 30.1214 39.3691 30.3627 39.2783C31.0681 39.0127 32.4276 38.501 33.6406 37.452C35.2686 35.824 35.5326 34.988 35.4886 34.46C35.657 34.0109 35.8413 33.5776 36.0247 33.1469C36.2724 32.5647 36.5183 31.9869 36.7206 31.38C36.7206 31.2006 36.6903 31.0634 36.6635 30.9417C36.6179 30.7352 36.5822 30.5731 36.7206 30.324C36.7206 30.282 36.7081 30.2 36.692 30.0946C36.6406 29.7582 36.553 29.184 36.7206 28.916L36.7646 28.696ZM46.9286 13.604L43.3206 12.7679L41.9125 13.1639C41.9125 13.1639 41.7806 13.736 41.9125 14.0439C42.0768 14.3177 42.4794 15.2896 42.8026 16.0696C42.999 16.5436 43.166 16.9469 43.2325 17.08C43.4978 17.421 43.4041 19.361 43.373 20.0055C43.368 20.1094 43.3646 20.1796 43.3646 20.204C43.4966 22.272 43.5406 22.932 43.6725 23.504C43.6928 23.5546 43.7159 23.6097 43.7409 23.6693C43.9332 24.1284 44.2344 24.8473 44.1566 25.704C43.9366 28.916 44.1125 29.444 44.1125 29.444C44.3326 30.368 44.2446 33.448 44.1125 33.536C43.9149 33.6207 43.9709 33.9048 44.0364 34.2369C44.073 34.4224 44.1125 34.6228 44.1125 34.812C44.1125 35.0598 44.1464 35.2931 44.1804 35.5278C44.249 36.0018 44.3185 36.4821 44.1125 37.1C43.6725 37.848 44.1125 41.632 44.1125 41.632V47.528C44.1125 47.528 43.9366 48.056 44.1125 48.6281C44.1712 48.8041 44.1712 48.9507 44.1712 49.0729C44.1713 49.3174 44.1713 49.464 44.6406 49.552L45.8286 49.948C45.8286 49.948 46.7966 49.552 46.9725 49.156C47.1048 49.0385 47.237 48.9602 47.3611 48.8867C47.6085 48.7402 47.8234 48.613 47.9406 48.2321C48.0355 47.9471 47.9767 47.6366 47.9302 47.3904C47.8904 47.1802 47.8596 47.0168 47.9406 46.9561C48.0203 46.8364 47.9917 46.7078 47.9529 46.5333C47.906 46.3226 47.8443 46.0452 47.9406 45.636C48.0677 44.9368 48.0112 44.6737 47.97 44.4821C47.9541 44.4084 47.9406 44.3453 47.9406 44.272C48.0286 44.184 48.0286 43.9971 48.0286 43.7881C48.0286 43.5791 48.0286 43.348 48.1166 43.172C48.1166 43.0642 48.1702 42.973 48.2281 42.8743C48.3595 42.6505 48.5135 42.3882 48.1166 41.808C47.5446 40.884 47.8086 40.6639 47.8086 40.6639C47.8086 40.6639 47.9203 40.1299 48.0251 39.6095C48.1176 39.1504 48.2046 38.7019 48.2046 38.64C48.2046 38.464 48.3365 37.848 48.3365 37.276C48.3365 37.0349 48.254 36.9406 48.1643 36.838C48.0575 36.7161 47.9406 36.5825 47.9406 36.176C47.9406 35.384 48.2925 34.812 48.2925 34.812C48.2925 34.812 48.1166 34.46 48.2925 33.668C48.4297 33.3114 48.3959 33.1771 48.351 32.9987C48.3238 32.8909 48.2925 32.7668 48.2925 32.568C48.5126 31.996 48.0726 31.028 47.8525 30.632V25.748C48.0726 25.308 48.0726 24.736 47.8525 24.5601C47.8525 24.3539 47.7922 24.0721 47.7421 23.8387C47.7068 23.6737 47.6766 23.5328 47.6766 23.46C47.6766 23.4121 47.6506 23.3773 47.6198 23.3361C47.5373 23.2256 47.4202 23.0688 47.6766 22.4919C47.9031 22.0641 47.928 21.6793 47.9491 21.3542C47.9648 21.1112 47.9785 20.9015 48.0726 20.7321C48.2485 20.38 48.3806 19.5 48.3806 19.324C48.3806 19.1479 48.2485 17.3 48.0726 16.9041V16.332L47.6766 14.748L46.9286 13.604ZM32.6725 26.98C32.8486 27.332 32.6725 27.772 32.6725 27.772V29.6639C32.6725 29.6639 32.8486 30.0601 32.6725 30.5C32.5292 30.7007 32.5726 30.8827 32.6203 31.0825C32.6458 31.1893 32.6725 31.3013 32.6725 31.424C32.5876 31.5599 32.496 31.6827 32.3954 31.8177C32.2355 32.0325 32.0526 32.278 31.8365 32.656L31.6166 33.228C31.2646 33.844 31.1326 34.196 31.1326 34.196L29.1086 35.1639C28.3605 35.736 28.3605 35.34 28.1846 35.1639H27.7446L25.6326 35.076L24.6646 34.724H23.2126C22.9485 34.724 22.3326 34.2841 22.3326 34.2841L21.8046 33.536L21.4526 32.568L20.7046 31.776C20.7046 31.776 20.7994 31.1804 20.8837 30.6199C20.9515 30.1698 21.0126 29.7423 21.0126 29.6639C21.0126 29.488 20.7046 27.376 20.7046 27.376C20.8502 27.0364 21.0225 26.7101 21.1994 26.375C21.3433 26.1024 21.4904 25.8241 21.6285 25.528C21.8073 25.1407 22.1675 24.9148 22.5318 24.6864C22.7056 24.5774 22.8802 24.4679 23.0366 24.34C24.2686 23.2841 25.3686 22.536 27.6125 22.932L29.3726 23.548C29.3726 23.548 30.5165 24.296 30.6926 24.296C30.8686 24.296 31.7046 24.912 31.8806 25.088C32.0126 25.088 31.9686 25.616 31.9686 25.616C31.9686 25.616 32.1446 26.056 32.3206 26.188C32.4306 26.276 32.4636 26.4301 32.4966 26.5841C32.5296 26.738 32.5626 26.892 32.6725 26.98Z" fill="white"/>
</svg>
