<svg width="24" height="24" viewBox="0 0 24 24" fill="none" xmlns="http://www.w3.org/2000/svg">
<g opacity="0.8">
<path fill-rule="evenodd" clip-rule="evenodd" d="M12 23C18.0751 23 23 18.0751 23 12C23 5.92487 18.0751 1 12 1C5.92487 1 1 5.92487 1 12C1 18.0751 5.92487 23 12 23ZM5.5 12C5.5 8.40938 8.40938 5.5 12 5.5C15.5906 5.5 18.5 8.40938 18.5 12V16.5031C18.5 17.1938 17.9406 17.7531 17.25 17.7531L13.8 17.75C13.5406 17.3031 13.0562 17 12.5 17H11.5C10.6719 17 10 17.6719 10 18.5C10 19.3281 10.6719 20 11.5 20H12.5C13.0562 20 13.5406 19.6969 13.8 19.25L17.2469 19.2531C18.7687 19.2531 20 18.0219 20 16.5031V12C20 7.58125 16.4187 4 12 4C7.58125 4 4 7.58125 4 12V13.25C4 13.6656 4.33437 14 4.75 14C5.16563 14 5.5 13.6656 5.5 13.25V12ZM9 10.5H8.5C7.39687 10.5 6.5 11.3969 6.5 12.5V14C6.5 15.1031 7.39687 16 8.5 16H9C9.55313 16 10 15.5531 10 15V11.5C10 10.9469 9.55313 10.5 9 10.5ZM17.5 12.5C17.5 11.3969 16.6031 10.5 15.5 10.5H15C14.4469 10.5 14 10.9469 14 11.5V15C14 15.5531 14.4469 16 15 16H15.5C16.6031 16 17.5 15.1031 17.5 14V12.5Z" fill="#131416"/>
</g>
</svg>
