<svg width="80" height="80" viewBox="0 0 80 80" fill="none" xmlns="http://www.w3.org/2000/svg">
<g opacity="0.6">
<circle cx="40" cy="40" r="36" transform="rotate(180 40 40)" fill="white"/>
<path d="M48.8586 41.17C49.1928 40.8357 49.36 40.4457 49.36 40C49.36 39.5543 49.1928 39.1643 48.8586 38.83L39.4986 29.47C38.9971 28.9686 38.3976 28.8438 37.7001 29.0956C37.0048 29.3452 36.6571 29.86 36.6571 30.64L36.6571 49.36C36.6571 50.14 37.0048 50.6548 37.7001 50.9044C38.3976 51.1562 38.9971 51.0314 39.4986 50.53L48.8586 41.17ZM73.4286 40C73.4286 44.6243 72.5505 48.97 70.7944 53.0372C69.0405 57.1043 66.6593 60.6422 63.6507 63.6507C60.6421 66.6593 57.1043 69.0405 53.0371 70.7944C48.97 72.5505 44.6243 73.4286 40 73.4286C35.3757 73.4286 31.03 72.5505 26.9628 70.7944C22.8957 69.0405 19.3578 66.6593 16.3493 63.6507C13.3407 60.6422 10.9584 57.1043 9.20224 53.0372C7.44835 48.97 6.57141 44.6243 6.57141 40C6.57141 35.3757 7.44835 31.03 9.20224 26.9629C10.9584 22.8957 13.3407 19.3579 16.3493 16.3493C19.3578 13.3407 22.8957 10.9595 26.9628 9.20561C31.03 7.4495 35.3757 6.57144 40 6.57144C44.6243 6.57144 48.97 7.4495 53.0371 9.20561C57.1043 10.9595 60.6421 13.3407 63.6507 16.3493C66.6593 19.3579 69.0405 22.8957 70.7944 26.9629C72.5505 31.03 73.4286 35.3757 73.4286 40Z" fill="#131416"/>
</g>
</svg>
