<svg width="24" height="24" viewBox="0 0 24 24" fill="none" xmlns="http://www.w3.org/2000/svg">
<g opacity="0.6">
<path d="M18.1445 17.5086C17.1949 15.8586 15.4117 14.75 13.375 14.75H10.625C8.58828 14.75 6.80508 15.8586 5.85547 17.5086C7.36797 19.193 9.55937 20.25 12 20.25C14.4406 20.25 16.632 19.1887 18.1445 17.5086ZM1 12C1 9.08262 2.15893 6.28473 4.22183 4.22183C6.28473 2.15893 9.08262 1 12 1C14.9174 1 17.7153 2.15893 19.7782 4.22183C21.8411 6.28473 23 9.08262 23 12C23 14.9174 21.8411 17.7153 19.7782 19.7782C17.7153 21.8411 14.9174 23 12 23C9.08262 23 6.28473 21.8411 4.22183 19.7782C2.15893 17.7153 1 14.9174 1 12ZM12 12.6875C12.8205 12.6875 13.6074 12.3616 14.1876 11.7814C14.7678 11.2012 15.0938 10.4143 15.0938 9.59375C15.0938 8.77324 14.7678 7.98633 14.1876 7.40614C13.6074 6.82595 12.8205 6.5 12 6.5C11.1795 6.5 10.3926 6.82595 9.81239 7.40614C9.2322 7.98633 8.90625 8.77324 8.90625 9.59375C8.90625 10.4143 9.2322 11.2012 9.81239 11.7814C10.3926 12.3616 11.1795 12.6875 12 12.6875Z" fill="white"/>
</g>
</svg>
