<svg width="80" height="80" viewBox="0 0 80 80" fill="none" xmlns="http://www.w3.org/2000/svg">
<circle cx="40" cy="40" r="40" fill="#9FA4A8"/>
<g opacity="0.8">
<path d="M33.3 42.14L29.9 45.54C27.54 44.85 24.97 45.49 23.22 47.23C21.36 49.09 20.75 51.89 21.67 54.35L22.08 55.44L26.46 51.07L28.42 51.58L28.93 53.54L24.56 57.92L25.65 58.3299C28.09 59.24 30.93 58.62 32.77 56.78C34.51 55.03 35.15 52.4599 34.46 50.1L37.86 46.7L33.3 42.14Z" fill="white"/>
<path d="M46.7 37.86L50.1 34.46C52.46 35.15 55.03 34.51 56.78 32.77C58.64 30.91 59.25 28.11 58.33 25.65L57.92 24.56L53.54 28.93L51.58 28.42L51.07 26.46L55.44 22.08L54.35 21.67C51.88 20.75 49.09 21.36 47.23 23.22C45.49 24.97 44.85 27.54 45.54 29.9L42.14 33.3L46.7 37.86Z" fill="white"/>
<path d="M31.1925 32.2529L28.3639 35.0815L49.2829 56.0006L52.1116 53.1719L31.1925 32.2529Z" fill="white"/>
<path d="M32.2535 25.5356L25.5357 32.2534L27.3033 34.021L34.0211 27.3032L32.2535 25.5356Z" fill="white"/>
<path d="M56.8342 50.5701L50.5701 56.8342L59.0488 59.0488L56.8342 50.5701Z" fill="white"/>
<path d="M27.6573 20.9394L20.9395 27.6572L24.4752 31.1929L31.193 24.4751L27.6573 20.9394Z" fill="white"/>
<path d="M35.0817 28.3637L32.2531 31.1923L53.1721 52.1114L56.0007 49.2827L35.0817 28.3637Z" fill="white"/>
</g>
</svg>
