<svg width="80" height="80" viewBox="0 0 80 80" fill="none" xmlns="http://www.w3.org/2000/svg">
<g opacity="0.6">
<circle cx="40" cy="40" r="36" fill="white"/>
<path d="M31.1414 38.83C30.8072 39.1643 30.64 39.5543 30.64 40C30.64 40.4457 30.8072 40.8357 31.1414 41.17L40.5014 50.53C41.0029 51.0314 41.6024 51.1562 42.2999 50.9044C42.9952 50.6548 43.3429 50.14 43.3429 49.36L43.3429 30.64C43.3429 29.86 42.9952 29.3452 42.2999 29.0956C41.6024 28.8438 41.0029 28.9686 40.5014 29.47L31.1414 38.83ZM6.57144 40C6.57144 35.3757 7.4495 31.03 9.20561 26.9629C10.9595 22.8957 13.3407 19.3579 16.3493 16.3493C19.3579 13.3407 22.8957 10.9595 26.9629 9.2056C31.03 7.44948 35.3757 6.57142 40 6.57142C44.6243 6.57143 48.97 7.44948 53.0372 9.2056C57.1043 10.9595 60.6422 13.3407 63.6507 16.3493C66.6593 19.3579 69.0416 22.8957 70.7978 26.9629C72.5516 31.03 73.4286 35.3757 73.4286 40C73.4286 44.6243 72.5516 48.97 70.7978 53.0371C69.0416 57.1043 66.6593 60.6421 63.6507 63.6507C60.6422 66.6593 57.1043 69.0405 53.0372 70.7944C48.97 72.5505 44.6243 73.4286 40 73.4286C35.3757 73.4286 31.03 72.5505 26.9629 70.7944C22.8957 69.0405 19.3579 66.6593 16.3493 63.6507C13.3407 60.6421 10.9595 57.1043 9.20561 53.0371C7.4495 48.97 6.57144 44.6243 6.57144 40Z" fill="#131416"/>
</g>
</svg>
