<svg width="80" height="80" viewBox="0 0 80 80" fill="none" xmlns="http://www.w3.org/2000/svg">
<circle cx="40" cy="40" r="40" fill="#9FA4A8"/>
<g opacity="0.8">
<g clip-path="url(#clip0_23_76)">
<path d="M40.2551 47.5071C39.5788 47.5071 38.9093 47.214 38.4447 46.6512L30.4726 36.996C29.6387 35.9858 29.7725 34.4836 30.7717 33.6405C31.7709 32.7974 33.2568 32.9327 34.0908 33.9429L40.6316 41.8648L63.2326 24.7839C64.275 23.9961 65.7517 24.2118 66.531 25.2655C67.3103 26.3194 67.0969 27.8122 66.0546 28.6001L41.6649 47.0329C41.2425 47.3521 40.7472 47.5073 40.2552 47.5073L40.2551 47.5071Z" fill="white"/>
<path d="M45.2051 22.0429L42.7896 23.9968C46.8895 24.6279 50.4979 26.7918 53.0226 29.8903L56.891 26.9667C56.4111 26.3646 55.8991 25.7881 55.3593 25.2423C54.396 24.2685 53.3362 23.3845 52.2088 22.6145C51.0701 21.8368 49.8524 21.1687 48.5899 20.6288C46.7986 19.8629 44.932 19.3545 43.0145 19.1085L45.2407 21.593C45.3591 21.7254 45.3428 21.9312 45.2049 22.0428L45.2051 22.0429Z" fill="white"/>
<path d="M56.6431 38.3221C56.7328 39.0247 56.7792 39.741 56.7792 40.468C56.7792 49.6549 49.3861 57.129 40.2987 57.129C31.2113 57.129 23.8182 49.6549 23.8182 40.468C23.8182 32.6004 29.2402 25.9896 36.505 24.2527V26.4324C36.505 26.7038 36.8256 26.8439 37.0211 26.6581L42.3437 21.5971C42.4723 21.4749 42.4723 21.2682 42.3437 21.1459L37.0211 16.0846C36.8256 15.8986 36.505 16.0389 36.505 16.3103V19.2759C34.9649 19.5555 33.4615 20.0072 32.0076 20.6289C30.7451 21.1688 29.5276 21.8369 28.3887 22.6147C27.2615 23.3846 26.2015 24.2687 25.2382 25.2425C24.2749 26.2163 23.4005 27.2879 22.6388 28.4275C21.8695 29.5787 21.2086 30.8097 20.6746 32.0861C19.5635 34.742 19 37.5622 19 40.4678C19 43.3733 19.5635 46.1937 20.6748 48.8497C21.2088 50.126 21.8697 51.3569 22.639 52.5082C23.4006 53.6478 24.2751 54.7194 25.2384 55.6932C26.2016 56.6671 27.2616 57.5511 28.3889 58.3211C29.5276 59.0988 30.7453 59.7669 32.0078 60.3068C34.6352 61.4303 37.4248 61.9999 40.299 61.9999C43.1733 61.9999 45.9629 61.4303 48.5903 60.3068C49.8528 59.7669 51.0703 59.0988 52.2092 58.3211C53.3364 57.5511 54.3964 56.6671 55.3597 55.6932C56.323 54.7194 57.1974 53.6478 57.959 52.5082C58.7284 51.357 59.3892 50.126 59.9233 48.8497C61.0346 46.1935 61.5981 43.3735 61.5981 40.4678C61.5981 38.6326 61.3731 36.8316 60.9274 35.0844L56.6436 38.3219L56.6431 38.3221Z" fill="white"/>
<path d="M40.2551 47.5071C39.5788 47.5071 38.9093 47.214 38.4447 46.6512L30.4726 36.996C29.6387 35.9858 29.7725 34.4836 30.7717 33.6405C31.7709 32.7974 33.2568 32.9327 34.0908 33.9429L40.6316 41.8648L63.2326 24.7839C64.275 23.9961 65.7517 24.2118 66.531 25.2655C67.3103 26.3194 67.0969 27.8122 66.0546 28.6001L41.6649 47.0329C41.2425 47.3521 40.7472 47.5073 40.2552 47.5073L40.2551 47.5071Z" fill="white"/>
</g>
</g>
<defs>
<clipPath id="clip0_23_76">
<rect width="48" height="46" fill="white" transform="translate(19 16)"/>
</clipPath>
</defs>
</svg>
