<svg width="24" height="24" viewBox="0 0 24 24" fill="none" xmlns="http://www.w3.org/2000/svg">
<g opacity="0.6">
<path d="M12 23C14.9174 23 17.7153 21.8411 19.7782 19.7782C21.8411 17.7153 23 14.9174 23 12C23 9.08262 21.8411 6.28473 19.7782 4.22183C17.7153 2.15893 14.9174 1 12 1C9.08262 1 6.28473 2.15893 4.22183 4.22183C2.15893 6.28473 1 9.08262 1 12C1 14.9174 2.15893 17.7153 4.22183 19.7782C6.28473 21.8411 9.08262 23 12 23ZM8.29609 8.10273C8.63555 7.14453 9.54648 6.5 10.5648 6.5H13.0699C14.5695 6.5 15.7812 7.71602 15.7812 9.21133C15.7812 10.1824 15.2613 11.0805 14.4191 11.566L13.0312 12.3609C13.0227 12.9195 12.5629 13.375 12 13.375C11.4285 13.375 10.9688 12.9152 10.9688 12.3438V11.7637C10.9688 11.3941 11.1664 11.0547 11.4887 10.8699L13.3922 9.77852C13.5941 9.6625 13.7188 9.44766 13.7188 9.21562C13.7188 8.85469 13.4266 8.5668 13.0699 8.5668H10.5648C10.4187 8.5668 10.2898 8.65703 10.2426 8.79453L10.2254 8.84609C10.0363 9.3832 9.44336 9.6625 8.91055 9.47344C8.37773 9.28438 8.09414 8.69141 8.2832 8.15859L8.30039 8.10703L8.29609 8.10273ZM10.625 16.125C10.625 15.7603 10.7699 15.4106 11.0277 15.1527C11.2856 14.8949 11.6353 14.75 12 14.75C12.3647 14.75 12.7144 14.8949 12.9723 15.1527C13.2301 15.4106 13.375 15.7603 13.375 16.125C13.375 16.4897 13.2301 16.8394 12.9723 17.0973C12.7144 17.3551 12.3647 17.5 12 17.5C11.6353 17.5 11.2856 17.3551 11.0277 17.0973C10.7699 16.8394 10.625 16.4897 10.625 16.125Z" fill="white"/>
</g>
</svg>
