<svg width="80" height="80" viewBox="0 0 80 80" fill="none" xmlns="http://www.w3.org/2000/svg">
<path d="M80 40C80 62.0914 62.0914 80 40 80C17.9086 80 0 62.0914 0 40C0 17.9086 17.9086 0 40 0C62.0914 0 80 17.9086 80 40Z" fill="#9FA4A8"/>
<path d="M35.1424 47.0257V32.6059C35.1424 32.2026 35.3188 31.9 35.6717 31.6984C36.0247 31.4967 36.3692 31.5135 36.7053 31.7488L47.9487 38.9587C48.2512 39.1603 48.4025 39.446 48.4025 39.8158C48.4025 40.1855 48.2512 40.4712 47.9487 40.6729L36.7053 47.8828C36.3692 48.1181 36.0247 48.1349 35.6717 47.9332C35.3188 47.7315 35.1424 47.429 35.1424 47.0257ZM22.0335 52.5213V55.9498C22.0335 56.5212 21.8402 57.0001 21.4537 57.3867C21.0671 57.7732 20.5882 57.9665 20.0167 57.9665C19.4453 57.9665 18.9664 57.7732 18.5798 57.3867C18.1933 57.0001 18 56.5212 18 55.9498V47.8828C18 47.3114 18.1933 46.8324 18.5798 46.4458C18.9664 46.0593 19.4453 45.866 20.0167 45.866H28.0837C28.6551 45.866 29.1341 46.0593 29.5207 46.4458C29.9072 46.8324 30.1005 47.3114 30.1005 47.8828C30.1005 48.4542 29.9072 48.9332 29.5207 49.3197C29.1341 49.7062 28.6551 49.8995 28.0837 49.8995H25.1595C26.8737 52.4205 29.0501 54.3952 31.6887 55.8237C34.3273 57.2522 37.1591 57.9665 40.1842 57.9665C43.6799 57.9665 46.8731 57.059 49.7638 55.2439C52.6544 53.4288 54.8729 50.9919 56.419 47.9332C56.7216 47.3618 57.1165 46.908 57.6039 46.5719C58.0913 46.2358 58.6543 46.1349 59.2929 46.2694C59.8979 46.4038 60.2929 46.7483 60.4777 47.303C60.6626 47.8576 60.6038 48.4542 60.3013 49.0928C58.4862 52.9919 55.7804 56.1178 52.1839 58.4707C48.5873 60.8236 44.5875 62 40.1842 62C36.5541 62 33.1508 61.1681 29.9744 59.5043C26.7981 57.8405 24.1511 55.5128 22.0335 52.5213ZM20.168 37.799C19.5966 37.799 19.1344 37.589 18.7815 37.1688C18.4286 36.7486 18.3025 36.2529 18.4033 35.6814C18.7395 34.1017 19.1764 32.6479 19.7142 31.3202C20.252 29.9925 20.9747 28.6564 21.8822 27.3119C22.2184 26.8078 22.6553 26.5221 23.1931 26.4548C23.7309 26.3876 24.2183 26.5725 24.6553 27.0094C25.1258 27.48 25.3611 27.9926 25.3611 28.5472C25.3611 29.1018 25.1763 29.6648 24.8065 30.2362C24.2351 31.1102 23.7813 31.9841 23.4452 32.858C23.1091 33.7319 22.8066 34.6899 22.5377 35.7319C22.4032 36.3369 22.1259 36.8327 21.7058 37.2192C21.2856 37.6058 20.773 37.799 20.168 37.799ZM38.1675 19.7491C38.1675 20.3878 37.9742 20.9088 37.5877 21.3121C37.2011 21.7155 36.6885 21.9844 36.0499 22.1188C35.0415 22.3541 34.1088 22.6566 33.2517 23.0264C32.3945 23.3961 31.529 23.8667 30.6551 24.4381C30.1173 24.8078 29.5711 24.9759 29.0165 24.9423C28.4619 24.9087 27.9493 24.6566 27.4787 24.186C27.0754 23.7826 26.8989 23.3205 26.9493 22.7995C26.9997 22.2785 27.2602 21.8331 27.7308 21.4634C29.0417 20.5895 30.3442 19.8752 31.6383 19.3206C32.9323 18.766 34.3693 18.3374 35.9491 18.0349C36.5541 17.9341 37.0751 18.0517 37.512 18.3878C37.949 18.724 38.1675 19.1777 38.1675 19.7491ZM52.9906 24.186C52.52 24.6566 51.999 24.9002 51.4276 24.9171C50.8562 24.9339 50.3016 24.7574 49.7638 24.3877C48.8898 23.8162 48.0159 23.3625 47.142 23.0264C46.2681 22.6902 45.3101 22.3877 44.2681 22.1188C43.6631 21.9844 43.1673 21.7071 42.7808 21.2869C42.3942 20.8668 42.201 20.3542 42.201 19.7491C42.201 19.1777 42.411 18.724 42.8312 18.3878C43.2514 18.0517 43.7471 17.9341 44.3186 18.0349C45.932 18.3374 47.3941 18.7576 48.705 19.2954C50.0159 19.8332 51.3436 20.5558 52.6881 21.4634C53.1586 21.7995 53.4275 22.2365 53.4948 22.7743C53.562 23.3121 53.3939 23.7826 52.9906 24.186ZM60.2509 37.799C59.6122 37.799 59.0912 37.6058 58.6879 37.2192C58.2845 36.8327 58.0156 36.3201 57.8812 35.6814C57.6123 34.6395 57.3014 33.6899 56.9484 32.8328C56.5955 31.9757 56.1333 31.0933 55.5619 30.1858C55.1922 29.648 55.0241 29.1018 55.0577 28.5472C55.0913 27.9926 55.3434 27.48 55.814 27.0094C56.2174 26.6061 56.6795 26.438 57.2005 26.5052C57.7215 26.5725 58.1669 26.8414 58.5366 27.3119C59.4442 28.6564 60.1668 29.9841 60.7046 31.295C61.2424 32.6059 61.6626 34.068 61.9651 35.6814C62.0659 36.2529 61.9483 36.7486 61.6122 37.1688C61.276 37.589 60.8223 37.799 60.2509 37.799Z" fill="white"/>
</svg>
